<?xml version="1.0" encoding="UTF-8"?>
<!DOCTYPE svg PUBLIC "-//W3C//DTD SVG 1.1//EN" "http://www.w3.org/Graphics/SVG/1.1/DTD/svg11.dtd">
<svg xmlns="http://www.w3.org/2000/svg" version="1.1" width="428px" height="583px" style="shape-rendering:geometricPrecision; text-rendering:geometricPrecision; image-rendering:optimizeQuality; fill-rule:evenodd; clip-rule:evenodd" xmlns:xlink="http://www.w3.org/1999/xlink">
<g><path style="opacity:1" fill="#3c3839" d="M 215.5,133.5 C 213.208,134.686 210.874,134.686 208.5,133.5C 207.189,126.265 207.189,118.932 208.5,111.5C 209.473,109.052 209.806,106.385 209.5,103.5C 208.35,96.7782 210.35,95.2782 215.5,99C 216.575,110.441 216.575,121.941 215.5,133.5 Z"/></g>
<g><path style="opacity:0.678" fill="#a09f9f" d="M 209.5,103.5 C 209.806,106.385 209.473,109.052 208.5,111.5C 208.062,111.565 207.728,111.399 207.5,111C 208.123,108.393 208.79,105.893 209.5,103.5 Z"/></g>
<g><path style="opacity:1" fill="#454142" d="M 264.5,112.5 C 266.544,113.031 268.211,114.198 269.5,116C 263.881,124.886 256.881,132.552 248.5,139C 242.673,140.502 240.506,138.336 242,132.5C 249.992,126.339 257.492,119.673 264.5,112.5 Z"/></g>
<g><path style="opacity:1" fill="#3f3b3c" d="M 140.5,126.5 C 138.748,124.754 137.415,122.754 136.5,120.5C 136.47,119.503 136.97,118.836 138,118.5C 150.148,124.492 161.648,131.492 172.5,139.5C 173.833,141.833 173.833,144.167 172.5,146.5C 170.902,147.485 169.235,147.651 167.5,147C 158.032,140.687 149.032,133.854 140.5,126.5 Z"/></g>
<g><path style="opacity:0.557" fill="#b6b4b4" d="M 136.5,120.5 C 137.415,122.754 138.748,124.754 140.5,126.5C 138.284,125.797 136.451,124.464 135,122.5C 134.472,121.184 134.972,120.517 136.5,120.5 Z"/></g>
<g><path style="opacity:0.345" fill="#b4b2b3" d="M 208.5,133.5 C 210.874,134.686 213.208,134.686 215.5,133.5C 215.03,134.693 214.03,135.36 212.5,135.5C 210.645,135.66 209.312,134.993 208.5,133.5 Z"/></g>
<g><path style="opacity:0.999" fill="#383333" d="M 265.5,204.5 C 259.779,218.892 250.113,229.892 236.5,237.5C 231.043,240.875 225.043,242.875 218.5,243.5C 213.706,244.097 209.373,243.43 205.5,241.5C 205.833,241.5 206.167,241.5 206.5,241.5C 212.507,241.118 218.173,239.784 223.5,237.5C 249.321,229.335 261.988,211.668 261.5,184.5C 261.072,181.215 260.072,178.215 258.5,175.5C 258.5,174.833 258.167,174.5 257.5,174.5C 251.91,161.191 242.243,152.191 228.5,147.5C 227.22,146.069 225.553,145.402 223.5,145.5C 202.972,140.629 185.639,145.963 171.5,161.5C 169.457,162.579 168.124,164.246 167.5,166.5C 166.662,166.842 166.328,167.508 166.5,168.5C 161.828,176.855 159.494,185.855 159.5,195.5C 159.232,197.099 159.566,198.432 160.5,199.5C 163.165,215.331 171.498,227.164 185.5,235C 189.646,236.574 193.646,238.407 197.5,240.5C 197.631,241.239 197.464,241.906 197,242.5C 195.644,241.62 194.144,241.286 192.5,241.5C 191.833,241.5 191.167,241.5 190.5,241.5C 189.791,240.596 188.791,240.263 187.5,240.5C 178.525,236.178 170.859,230.178 164.5,222.5C 159.524,216.442 156.358,209.442 155,201.5C 152.447,161.972 170.947,140.305 210.5,136.5C 237.866,137.719 256.366,151.053 266,176.5C 266.273,174.671 267.107,173.171 268.5,172C 282.004,168.749 295.671,166.583 309.5,165.5C 309.5,167.5 309.5,169.5 309.5,171.5C 297.166,175.041 284.666,178.041 272,180.5C 269.425,180.91 267.758,179.91 267,177.5C 267.005,182.046 267.505,186.546 268.5,191C 267.897,195.677 266.897,200.177 265.5,204.5 Z M 227.5,148.5 C 227.5,147.833 227.833,147.5 228.5,147.5C 242.243,152.191 251.91,161.191 257.5,174.5C 256.272,173.694 255.272,172.694 254.5,171.5C 253.92,169.251 252.587,167.585 250.5,166.5C 246.102,161.771 241.102,157.771 235.5,154.5C 233.2,152.016 230.533,150.016 227.5,148.5 Z M 166.5,168.5 C 167.167,168.5 167.5,168.833 167.5,169.5C 167.5,169.833 167.5,170.167 167.5,170.5C 165.272,174.076 164.272,178.076 164.5,182.5C 162.882,185.888 161.882,189.554 161.5,193.5C 160.833,194.167 160.167,194.833 159.5,195.5C 159.494,185.855 161.828,176.855 166.5,168.5 Z"/></g>
<g><path style="opacity:1" fill="#f48021" d="M 223.5,145.5 C 224.795,146.488 226.128,147.488 227.5,148.5C 228.942,149.82 229.608,151.486 229.5,153.5C 231.565,153.517 233.565,153.85 235.5,154.5C 241.102,157.771 246.102,161.771 250.5,166.5C 251.08,168.749 252.413,170.415 254.5,171.5C 255.272,172.694 256.272,173.694 257.5,174.5C 257.5,175.167 257.5,175.833 257.5,176.5C 258.65,179.298 259.983,181.965 261.5,184.5C 261.988,211.668 249.321,229.335 223.5,237.5C 214.834,238.5 206.167,239.5 197.5,240.5C 193.646,238.407 189.646,236.574 185.5,235C 171.498,227.164 163.165,215.331 160.5,199.5C 161.15,197.565 161.483,195.565 161.5,193.5C 161.882,189.554 162.882,185.888 164.5,182.5C 165.868,178.702 166.868,174.702 167.5,170.5C 167.5,170.167 167.5,169.833 167.5,169.5C 168.338,169.158 168.672,168.492 168.5,167.5C 169.492,165.544 170.492,163.544 171.5,161.5C 185.639,145.963 202.972,140.629 223.5,145.5 Z"/></g>
<g><path style="opacity:0.008" fill="#e9e4de" d="M 223.5,145.5 C 225.553,145.402 227.22,146.069 228.5,147.5C 227.833,147.5 227.5,147.833 227.5,148.5C 226.128,147.488 224.795,146.488 223.5,145.5 Z"/></g>
<g><path style="opacity:1" fill="#fcb780" d="M 227.5,148.5 C 230.533,150.016 233.2,152.016 235.5,154.5C 233.565,153.85 231.565,153.517 229.5,153.5C 229.608,151.486 228.942,149.82 227.5,148.5 Z"/></g>
<g><path style="opacity:0.063" fill="#e9dace" d="M 171.5,161.5 C 170.492,163.544 169.492,165.544 168.5,167.5C 168.5,166.833 168.167,166.5 167.5,166.5C 168.124,164.246 169.457,162.579 171.5,161.5 Z"/></g>
<g><path style="opacity:0.008" fill="#e7e0da" d="M 167.5,166.5 C 168.167,166.5 168.5,166.833 168.5,167.5C 168.672,168.492 168.338,169.158 167.5,169.5C 167.5,168.833 167.167,168.5 166.5,168.5C 166.328,167.508 166.662,166.842 167.5,166.5 Z"/></g>
<g><path style="opacity:1" fill="#29201f" d="M 194.5,167.5 C 195.5,167.5 196.5,167.5 197.5,167.5C 197.5,169.833 197.5,172.167 197.5,174.5C 193.452,173.738 192.452,171.404 194.5,167.5 Z"/></g>
<g><path style="opacity:1" fill="#29201e" d="M 221.5,167.5 C 222.5,167.5 223.5,167.5 224.5,167.5C 224.5,169.833 224.5,172.167 224.5,174.5C 220.452,173.738 219.452,171.404 221.5,167.5 Z"/></g>
<g><path style="opacity:0.188" fill="#f9dec3" d="M 250.5,166.5 C 252.587,167.585 253.92,169.251 254.5,171.5C 252.413,170.415 251.08,168.749 250.5,166.5 Z"/></g>
<g><path style="opacity:0.999" fill="#454142" d="M 115.5,171.5 C 126.28,171.557 136.78,173.224 147,176.5C 150.097,175.889 151.93,177.389 152.5,181C 151.872,183.96 150.039,185.46 147,185.5C 136.213,182.46 125.38,179.626 114.5,177C 113.156,174.856 113.49,173.023 115.5,171.5 Z"/></g>
<g><path style="opacity:0.894" fill="#f9c89e" d="M 167.5,170.5 C 166.868,174.702 165.868,178.702 164.5,182.5C 164.272,178.076 165.272,174.076 167.5,170.5 Z"/></g>
<g><path style="opacity:0.275" fill="#c7bdb3" d="M 258.5,175.5 C 260.072,178.215 261.072,181.215 261.5,184.5C 259.983,181.965 258.65,179.298 257.5,176.5C 258.167,176.5 258.5,176.167 258.5,175.5 Z"/></g>
<g><path style="opacity:0.047" fill="#e7e4dd" d="M 161.5,193.5 C 161.483,195.565 161.15,197.565 160.5,199.5C 159.566,198.432 159.232,197.099 159.5,195.5C 160.167,194.833 160.833,194.167 161.5,193.5 Z"/></g>
<g><path style="opacity:1" fill="#28211f" d="M 228.5,195.5 C 230.84,196.086 233.007,197.086 235,198.5C 232.023,207.816 225.856,214.316 216.5,218C 203.134,219.483 193.134,214.316 186.5,202.5C 188.109,201.112 189.942,200.112 192,199.5C 195.52,203.679 199.686,207.179 204.5,210C 216.866,212.642 224.866,207.809 228.5,195.5 Z"/></g>
<g><path style="opacity:1" fill="#413d3e" d="M 146.5,205.5 C 152,204.831 154.167,207.165 153,212.5C 144.926,219.452 136.759,226.286 128.5,233C 126.431,234.874 124.098,235.874 121.5,236C 119.789,234.867 119.289,233.367 120,231.5C 128.702,222.631 137.535,213.964 146.5,205.5 Z"/></g>
<g><path style="opacity:1" fill="#413e3f" d="M 263.5,223.5 C 265.14,224.32 266.807,225.153 268.5,226C 275.321,233.787 282.487,241.287 290,248.5C 290.265,250.163 289.765,251.663 288.5,253C 285.23,252.537 282.23,251.204 279.5,249C 273.617,242.614 267.284,236.781 260.5,231.5C 258.763,227.77 259.763,225.103 263.5,223.5 Z"/></g>
<g><path style="opacity:1" fill="#f29a55" d="M 265.5,204.5 C 265.649,207.607 265.149,210.607 264,213.5C 260.986,218.865 257.986,224.199 255,229.5C 250.205,235.313 244.039,237.98 236.5,237.5C 250.113,229.892 259.779,218.892 265.5,204.5 Z"/></g>
<g><path style="opacity:1" fill="#f19a56" d="M 164.5,222.5 C 170.859,230.178 178.525,236.178 187.5,240.5C 185.194,240.007 182.861,239.674 180.5,239.5C 172.434,236.433 167.1,230.766 164.5,222.5 Z"/></g>
<g><path style="opacity:0.114" fill="#f5e1cb" d="M 180.5,239.5 C 182.861,239.674 185.194,240.007 187.5,240.5C 188.791,240.263 189.791,240.596 190.5,241.5C 186.84,241.841 183.507,241.175 180.5,239.5 Z"/></g>
<g><path style="opacity:0.165" fill="#d0c5bc" d="M 223.5,237.5 C 218.173,239.784 212.507,241.118 206.5,241.5C 206.167,240.167 205.833,240.167 205.5,241.5C 209.373,243.43 213.706,244.097 218.5,243.5C 214.03,244.486 209.363,244.819 204.5,244.5C 204.5,243.5 204.5,242.5 204.5,241.5C 201.756,241.248 199.256,241.915 197,243.5C 195.272,243.101 193.772,242.434 192.5,241.5C 194.144,241.286 195.644,241.62 197,242.5C 197.464,241.906 197.631,241.239 197.5,240.5C 206.167,239.5 214.834,238.5 223.5,237.5 Z"/></g>
<g><path style="opacity:1" fill="#464243" d="M 175.5,247.5 C 181,246.831 183.167,249.165 182,254.5C 175.182,266.801 167.848,278.801 160,290.5C 156.925,289.531 155.925,287.531 157,284.5C 162.125,271.582 168.292,259.249 175.5,247.5 Z"/></g>
<g><path style="opacity:1" fill="#413d3e" d="M 244.5,285.5 C 243.789,287.842 242.456,288.175 240.5,286.5C 236.835,283.667 233.668,280.334 231,276.5C 226.714,269.431 222.547,262.265 218.5,255C 220.42,250.27 223.42,249.437 227.5,252.5C 233.674,263.313 239.341,274.313 244.5,285.5 Z"/></g>
<g><path style="opacity:0.271" fill="#c5c4c4" d="M 244.5,285.5 C 246.984,287.259 246.484,288.259 243,288.5C 241.624,288.316 240.791,287.649 240.5,286.5C 242.456,288.175 243.789,287.842 244.5,285.5 Z"/></g>
<g><path style="opacity:1" fill="#6d645b" d="M 227.5,312.5 C 227.5,311.167 227.5,309.833 227.5,308.5C 226.448,308.649 225.448,308.483 224.5,308C 221.995,302.251 218.162,301.084 213,304.5C 210.825,304.166 208.992,303.166 207.5,301.5C 205.048,304.059 202.048,305.559 198.5,306C 197.594,307.699 197.261,309.533 197.5,311.5C 196.496,301.804 201.163,296.471 211.5,295.5C 217.734,295.535 222.901,297.868 227,302.5C 228.684,305.894 228.851,309.228 227.5,312.5 Z"/></g>
<g><path style="opacity:1" fill="#6d6760" d="M 129.5,316.5 C 128.85,316.804 128.183,317.137 127.5,317.5C 127.013,303.838 120.346,299.338 107.5,304C 106.333,305.167 105.167,306.333 104,307.5C 103.696,311.548 103.196,315.548 102.5,319.5C 100.896,318.713 100.229,317.38 100.5,315.5C 101.036,312.302 100.369,309.635 98.5,307.5C 97.5041,307.414 96.6708,307.748 96,308.5C 95.1524,311.56 94.1524,314.56 93,317.5C 91.9505,318.517 90.7839,318.684 89.5,318C 88.5286,312.928 88.1953,307.762 88.5,302.5C 93.6948,304.534 98.3614,303.7 102.5,300C 104,299.833 105.5,299.667 107,299.5C 113.82,300.24 120.654,300.406 127.5,300C 129.87,301.185 132.203,302.351 134.5,303.5C 136.782,302.777 139.116,302.443 141.5,302.5C 141.292,304.92 141.626,307.253 142.5,309.5C 141.77,312.109 141.27,314.776 141,317.5C 139.667,318.833 138.333,318.833 137,317.5C 135.79,313.913 134.29,310.58 132.5,307.5C 131.914,307.709 131.414,308.043 131,308.5C 130.817,311.365 130.317,314.031 129.5,316.5 Z"/></g>
<g><path style="opacity:1" fill="#c36d3e" d="M 227.5,312.5 C 227.269,315.063 225.935,316.73 223.5,317.5C 220.982,318.264 218.649,319.264 216.5,320.5C 213.5,320.5 210.5,320.5 207.5,320.5C 205.337,318.917 203.004,317.584 200.5,316.5C 198.75,315.341 197.75,313.674 197.5,311.5C 197.261,309.533 197.594,307.699 198.5,306C 202.048,305.559 205.048,304.059 207.5,301.5C 208.992,303.166 210.825,304.166 213,304.5C 218.162,301.084 221.995,302.251 224.5,308C 225.448,308.483 226.448,308.649 227.5,308.5C 227.5,309.833 227.5,311.167 227.5,312.5 Z"/></g>
<g><path style="opacity:1" fill="#c46d3e" d="M 129.5,316.5 C 128.833,319.833 126.833,321.833 123.5,322.5C 117.833,323.833 112.167,323.833 106.5,322.5C 104.596,322.262 103.262,321.262 102.5,319.5C 103.196,315.548 103.696,311.548 104,307.5C 105.167,306.333 106.333,305.167 107.5,304C 120.346,299.338 127.013,303.838 127.5,317.5C 128.183,317.137 128.85,316.804 129.5,316.5 Z"/></g>
<g><path style="opacity:1" fill="#362622" d="M 204.5,305.5 C 205.5,305.5 206.5,305.5 207.5,305.5C 207.5,306.5 207.5,307.5 207.5,308.5C 206.5,308.5 205.5,308.5 204.5,308.5C 204.5,307.5 204.5,306.5 204.5,305.5 Z"/></g>
<g><path style="opacity:1" fill="#372621" d="M 115.5,307.5 C 116.5,307.5 117.5,307.5 118.5,307.5C 117.754,311.31 116.754,311.31 115.5,307.5 Z"/></g>
<g><path style="opacity:1" fill="#645d57" d="M 323.5,328.5 C 321.499,325.832 319.999,322.832 319,319.5C 315.886,315.879 311.886,314.212 307,314.5C 302.83,314.562 298.997,315.562 295.5,317.5C 296.578,314.092 298.911,312.092 302.5,311.5C 305.428,311.435 308.095,310.768 310.5,309.5C 312.956,308.738 315.456,308.071 318,307.5C 322.333,308.5 326.667,309.5 331,310.5C 337.832,308.099 340.165,310.099 338,316.5C 336.18,319.203 333.68,320.036 330.5,319C 328.481,318.55 326.648,317.717 325,316.5C 324.667,318.047 325.167,319.38 326.5,320.5C 325.787,322.776 325.287,325.109 325,327.5C 324.617,328.056 324.117,328.389 323.5,328.5 Z"/></g>
<g><path style="opacity:0.686" fill="#e2d6cd" d="M 310.5,309.5 C 308.095,310.768 305.428,311.435 302.5,311.5C 304.78,309.777 307.447,309.111 310.5,309.5 Z"/></g>
<g><path style="opacity:0.212" fill="#e3e2e0" d="M 98.5,307.5 C 100.369,309.635 101.036,312.302 100.5,315.5C 99.7451,312.947 99.0784,310.28 98.5,307.5 Z"/></g>
<g><path style="opacity:1" fill="#2a2220" d="M 204.5,312.5 C 208.198,313.288 211.865,313.622 215.5,313.5C 215.291,314.086 214.957,314.586 214.5,315C 211.5,315.667 208.5,315.667 205.5,315C 204.748,314.329 204.414,313.496 204.5,312.5 Z"/></g>
<g><path style="opacity:1" fill="#362621" d="M 108.5,314.5 C 112.226,314.177 115.893,314.511 119.5,315.5C 116.451,317.466 113.118,317.966 109.5,317C 108.748,316.329 108.414,315.496 108.5,314.5 Z"/></g>
<g><path style="opacity:1" fill="#c77041" d="M 323.5,328.5 C 323.19,330.144 322.19,331.144 320.5,331.5C 318.426,332.514 316.426,333.514 314.5,334.5C 310.4,334.763 306.4,334.43 302.5,333.5C 296.995,331.986 293.995,328.32 293.5,322.5C 293.801,320.578 294.467,318.912 295.5,317.5C 298.997,315.562 302.83,314.562 307,314.5C 311.886,314.212 315.886,315.879 319,319.5C 319.999,322.832 321.499,325.832 323.5,328.5 Z"/></g>
<g><path style="opacity:0.024" fill="#f1e7de" d="M 200.5,316.5 C 203.004,317.584 205.337,318.917 207.5,320.5C 206.391,320.557 205.391,320.89 204.5,321.5C 203.197,319.858 201.864,318.191 200.5,316.5 Z"/></g>
<g><path style="opacity:0.031" fill="#e4e9e6" d="M 223.5,317.5 C 222.631,319.717 222.298,322.05 222.5,324.5C 221.566,323.432 221.232,322.099 221.5,320.5C 219.833,320.5 218.167,320.5 216.5,320.5C 218.649,319.264 220.982,318.264 223.5,317.5 Z"/></g>
<g><path style="opacity:1" fill="#362722" d="M 311.5,318.5 C 313.048,318.821 313.715,319.821 313.5,321.5C 310.752,321.598 310.086,320.598 311.5,318.5 Z"/></g>
<g><path style="opacity:1" fill="#3b2721" d="M 303.5,318.5 C 304.5,318.5 305.5,318.5 306.5,318.5C 306.5,319.5 306.5,320.5 306.5,321.5C 305.5,321.5 304.5,321.5 303.5,321.5C 303.5,320.5 303.5,319.5 303.5,318.5 Z"/></g>
<g><path style="opacity:1" fill="#2aafed" d="M 207.5,320.5 C 210.5,320.5 213.5,320.5 216.5,320.5C 218.167,320.5 219.833,320.5 221.5,320.5C 221.232,322.099 221.566,323.432 222.5,324.5C 222.5,326.167 222.5,327.833 222.5,329.5C 222.646,333.387 223.313,337.054 224.5,340.5C 224.5,341.167 224.5,341.833 224.5,342.5C 224.948,349.855 225.615,357.188 226.5,364.5C 216.5,364.5 206.5,364.5 196.5,364.5C 196.737,365.791 196.404,366.791 195.5,367.5C 197.241,357.127 199.241,346.794 201.5,336.5C 200.5,336.5 199.5,336.5 198.5,336.5C 199.209,335.596 200.209,335.263 201.5,335.5C 201.5,333.833 201.5,332.167 201.5,330.5C 202.222,330.918 202.722,331.584 203,332.5C 203.42,328.809 203.92,325.142 204.5,321.5C 205.391,320.89 206.391,320.557 207.5,320.5 Z"/></g>
<g><path style="opacity:0.894" fill="#e5b6a8" d="M 106.5,322.5 C 112.167,323.833 117.833,323.833 123.5,322.5C 123.389,323.117 123.056,323.617 122.5,324C 123.416,324.278 124.082,324.778 124.5,325.5C 118.775,324.399 113.108,324.399 107.5,325.5C 107.443,324.391 107.11,323.391 106.5,322.5 Z"/></g>
<g><path style="opacity:1" fill="#ec188c" d="M 124.5,325.5 C 124.5,326.167 124.5,326.833 124.5,327.5C 124.926,331.427 125.926,335.093 127.5,338.5C 128.219,340.764 128.552,343.097 128.5,345.5C 128.42,348.781 129.087,351.781 130.5,354.5C 132.785,361.917 134.452,369.584 135.5,377.5C 135.42,380.781 136.087,383.781 137.5,386.5C 137.5,386.833 137.5,387.167 137.5,387.5C 137.5,388.833 137.5,390.167 137.5,391.5C 133.784,392.657 130.117,392.657 126.5,391.5C 124.283,392.369 121.95,392.702 119.5,392.5C 115.33,392.221 110.997,392.221 106.5,392.5C 104.236,391.781 101.903,391.448 99.5,391.5C 95.4862,391.666 91.4862,391.499 87.5,391C 86.6198,389.644 86.2865,388.144 86.5,386.5C 91.5,371.167 96.5,355.833 101.5,340.5C 102.404,339.791 102.737,338.791 102.5,337.5C 104.539,333.734 106.205,329.734 107.5,325.5C 113.108,324.399 118.775,324.399 124.5,325.5 Z"/></g>
<g><path style="opacity:1" fill="#332520" d="M 302.5,325.5 C 306.5,326.833 310.5,326.833 314.5,325.5C 314.5,326.5 314.5,327.5 314.5,328.5C 310.818,328.665 307.152,328.499 303.5,328C 302.748,327.329 302.414,326.496 302.5,325.5 Z"/></g>
<g><path style="opacity:0.999" fill="#303030" d="M 201.5,330.5 C 201.5,332.167 201.5,333.833 201.5,335.5C 200.209,335.263 199.209,335.596 198.5,336.5C 191.803,339.346 185.136,342.513 178.5,346C 177.174,348.158 175.507,349.992 173.5,351.5C 172.269,350.349 172.269,349.183 173.5,348C 172.756,346.961 171.756,346.461 170.5,346.5C 168.821,346.715 167.821,346.048 167.5,344.5C 167.833,344.5 168.167,344.5 168.5,344.5C 170.713,344.152 172.713,343.319 174.5,342C 173.906,341.536 173.239,341.369 172.5,341.5C 172.167,341.5 171.833,341.5 171.5,341.5C 171.158,340.662 170.492,340.328 169.5,340.5C 168.662,340.158 168.328,339.492 168.5,338.5C 170.591,338.318 172.591,338.652 174.5,339.5C 183.072,335.128 191.906,331.462 201,328.5C 201.464,329.094 201.631,329.761 201.5,330.5 Z"/></g>
<g><path style="opacity:0.999" fill="#313131" d="M 229.5,330.5 C 236.742,332.191 243.909,334.191 251,336.5C 252.984,336.259 254.817,335.592 256.5,334.5C 257.583,335.365 257.749,336.365 257,337.5C 255.795,338.071 254.628,338.738 253.5,339.5C 254.602,340.176 255.602,340.842 256.5,341.5C 257.091,342.151 257.757,342.818 258.5,343.5C 258.376,344.107 258.043,344.44 257.5,344.5C 257.167,344.5 256.833,344.5 256.5,344.5C 255.486,343.326 254.153,342.66 252.5,342.5C 251.167,342.833 251.167,343.167 252.5,343.5C 253.434,345.239 253.434,346.905 252.5,348.5C 250.603,346.524 248.603,344.69 246.5,343C 239.847,340.726 233.18,338.56 226.5,336.5C 226.082,335.778 225.416,335.278 224.5,335C 225.38,333.644 225.714,332.144 225.5,330.5C 226.833,330.5 228.167,330.5 229.5,330.5 Z"/></g>
<g><path style="opacity:0.999" fill="#383435" d="M 153.5,333.5 C 158.147,335.444 162.813,337.11 167.5,338.5C 164.833,338.5 162.167,338.5 159.5,338.5C 156.545,339.159 153.545,339.492 150.5,339.5C 145.814,338.963 141.147,338.296 136.5,337.5C 133.713,336.523 130.713,336.19 127.5,336.5C 127.5,334.5 127.5,332.5 127.5,330.5C 136.299,329.741 144.966,330.741 153.5,333.5 Z"/></g>
<g><path style="opacity:0.004" fill="#f8f1eb" d="M 320.5,331.5 C 319.393,333.969 317.393,334.969 314.5,334.5C 316.426,333.514 318.426,332.514 320.5,331.5 Z"/></g>
<g><path style="opacity:1" fill="#898586" d="M 168.5,338.5 C 168.167,338.5 167.833,338.5 167.5,338.5C 162.813,337.11 158.147,335.444 153.5,333.5C 157.08,334.077 160.08,333.077 162.5,330.5C 163.5,330.833 164.167,331.5 164.5,332.5C 163.5,333.333 162.5,334.167 161.5,335C 163.81,335.497 166.143,335.663 168.5,335.5C 168.5,336.5 168.5,337.5 168.5,338.5 Z"/></g>
<g><path style="opacity:0.027" fill="#cad5d7" d="M 229.5,330.5 C 228.167,330.5 226.833,330.5 225.5,330.5C 225.714,332.144 225.38,333.644 224.5,335C 225.416,335.278 226.082,335.778 226.5,336.5C 224.824,337.183 224.157,338.517 224.5,340.5C 223.313,337.054 222.646,333.387 222.5,329.5C 223.29,330.609 223.79,331.942 224,333.5C 223.948,328.172 225.781,327.172 229.5,330.5 Z"/></g>
<g><path style="opacity:0.017" fill="#f9f6e8" d="M 302.5,333.5 C 306.4,334.43 310.4,334.763 314.5,334.5C 315.5,335.167 316.5,335.833 317.5,336.5C 311.855,335.866 306.189,335.532 300.5,335.5C 301.167,334.833 301.833,334.167 302.5,333.5 Z"/></g>
<g><path style="opacity:0.996" fill="#464243" d="M 102.5,337.5 C 102.737,338.791 102.404,339.791 101.5,340.5C 91.2323,344.902 80.5657,348.068 69.5,350C 67.7883,352.692 65.7883,353.026 63.5,351C 64.0944,350.536 64.7611,350.369 65.5,350.5C 66.9616,349.542 68.2949,348.376 69.5,347C 66.854,346.503 64.1873,346.336 61.5,346.5C 60.1667,345.833 60.1667,345.167 61.5,344.5C 64.1873,344.664 66.854,344.497 69.5,344C 68.9558,343.283 68.2891,342.783 67.5,342.5C 65.0882,342.306 64.0882,340.973 64.5,338.5C 67.2335,339.721 70.0669,340.721 73,341.5C 82.87,338.932 92.7033,336.265 102.5,333.5C 102.5,334.833 102.5,336.167 102.5,337.5 Z"/></g>
<g><path style="opacity:0.008" fill="#ede4e9" d="M 124.5,327.5 C 125.1,328.9 126.1,329.9 127.5,330.5C 127.5,332.5 127.5,334.5 127.5,336.5C 130.713,336.19 133.713,336.523 136.5,337.5C 133.287,337.19 130.287,337.523 127.5,338.5C 125.926,335.093 124.926,331.427 124.5,327.5 Z"/></g>
<g><path style="opacity:1" fill="#fcef13" d="M 300.5,335.5 C 306.189,335.532 311.855,335.866 317.5,336.5C 319.997,337.129 321.33,338.796 321.5,341.5C 321.5,343.5 321.5,345.5 321.5,347.5C 321.5,352.167 321.5,356.833 321.5,361.5C 320.732,363.715 320.065,366.048 319.5,368.5C 311.135,367.719 302.801,366.719 294.5,365.5C 294.5,357.167 294.5,348.833 294.5,340.5C 295.268,337.438 297.268,335.772 300.5,335.5 Z"/></g>
<g><path style="opacity:0.969" fill="#676565" d="M 159.5,338.5 C 159.833,339.5 160.5,340.167 161.5,340.5C 164.407,341.614 164.907,343.281 163,345.5C 159.777,341.349 155.61,339.349 150.5,339.5C 153.545,339.492 156.545,339.159 159.5,338.5 Z"/></g>
<g><path style="opacity:0.048" fill="#ebebeb" d="M 159.5,338.5 C 162.167,338.5 164.833,338.5 167.5,338.5C 165.5,339.167 163.5,339.833 161.5,340.5C 160.5,340.167 159.833,339.5 159.5,338.5 Z"/></g>
<g><path style="opacity:0.009" fill="#dadada" d="M 169.5,340.5 C 170.492,340.328 171.158,340.662 171.5,341.5C 170.817,342.644 171.151,342.644 172.5,341.5C 173.239,341.369 173.906,341.536 174.5,342C 172.713,343.319 170.713,344.152 168.5,344.5C 169.234,343.292 169.567,341.959 169.5,340.5 Z"/></g>
<g><path style="opacity:1" fill="#282828" d="M 331.5,342.5 C 339.68,344.212 347.68,346.212 355.5,348.5C 356.5,349.5 357.5,350.5 358.5,351.5C 359.791,351.263 360.791,351.596 361.5,352.5C 362.091,353.151 362.757,353.818 363.5,354.5C 363.043,355.298 362.376,355.631 361.5,355.5C 360.325,355.281 359.325,355.614 358.5,356.5C 359.645,357.891 359.645,359.224 358.5,360.5C 356.712,359.717 355.712,358.384 355.5,356.5C 355.179,354.952 354.179,354.285 352.5,354.5C 344.326,353.107 336.326,351.107 328.5,348.5C 326.735,347.539 324.735,347.205 322.5,347.5C 322.5,345.833 322.5,344.167 322.5,342.5C 325.5,342.5 328.5,342.5 331.5,342.5 Z"/></g>
<g><path style="opacity:0.112" fill="#dedcdd" d="M 67.5,342.5 C 68.2891,342.783 68.9558,343.283 69.5,344C 66.854,344.497 64.1873,344.664 61.5,344.5C 63.5,343.833 65.5,343.167 67.5,342.5 Z"/></g>
<g><path style="opacity:0.039" fill="#cccccc" d="M 252.5,343.5 C 252.5,343.167 252.5,342.833 252.5,342.5C 254.153,342.66 255.486,343.326 256.5,344.5C 255.041,344.567 253.708,344.234 252.5,343.5 Z"/></g>
<g><path style="opacity:1" fill="#1f1f1f" d="M 284.5,343.5 C 287.5,343.5 290.5,343.5 293.5,343.5C 293.5,345.5 293.5,347.5 293.5,349.5C 292.5,349.5 291.5,349.5 290.5,349.5C 284.251,350.523 277.918,351.19 271.5,351.5C 268.475,351.769 265.808,350.936 263.5,349C 264.712,347.893 264.379,347.393 262.5,347.5C 262.167,347.5 261.833,347.5 261.5,347.5C 263.167,346.833 264.833,346.167 266.5,345.5C 272.448,344.398 278.448,343.731 284.5,343.5 Z"/></g>
<g><path style="opacity:0.888" fill="#70706c" d="M 331.5,342.5 C 328.5,342.5 325.5,342.5 322.5,342.5C 322.5,344.167 322.5,345.833 322.5,347.5C 322.167,347.5 321.833,347.5 321.5,347.5C 321.5,345.5 321.5,343.5 321.5,341.5C 322.117,341.389 322.617,341.056 323,340.5C 325.939,341.128 328.772,341.795 331.5,342.5 Z"/></g>
<g><path style="opacity:1" fill="#8b8b8b" d="M 256.5,341.5 C 257.873,341.343 259.207,341.51 260.5,342C 259.007,343.156 259.174,343.99 261,344.5C 262.766,345.233 264.599,345.567 266.5,345.5C 264.833,346.167 263.167,346.833 261.5,347.5C 259.821,347.108 258.154,346.608 256.5,346C 257.056,345.617 257.389,345.117 257.5,344.5C 258.043,344.44 258.376,344.107 258.5,343.5C 257.757,342.818 257.091,342.151 256.5,341.5 Z"/></g>
<g><path style="opacity:0.069" fill="#e0dfdf" d="M 61.5,346.5 C 64.1873,346.336 66.854,346.503 69.5,347C 68.2949,348.376 66.9616,349.542 65.5,350.5C 65.4142,349.504 65.7476,348.671 66.5,348C 64.6183,347.802 62.9516,347.302 61.5,346.5 Z"/></g>
<g><path style="opacity:0.31" fill="#c9c9c9" d="M 167.5,344.5 C 167.821,346.048 168.821,346.715 170.5,346.5C 169.432,347.434 168.099,347.768 166.5,347.5C 166.263,346.209 166.596,345.209 167.5,344.5 Z"/></g>
<g><path style="opacity:0.992" fill="#737373" d="M 358.5,351.5 C 357.5,350.5 356.5,349.5 355.5,348.5C 357.836,347.657 360.169,347.157 362.5,347C 363.451,347.718 363.617,348.551 363,349.5C 361.378,350.099 359.878,350.766 358.5,351.5 Z"/></g>
<g><path style="opacity:0.831" fill="#f5a3d0" d="M 128.5,345.5 C 129.913,348.219 130.58,351.219 130.5,354.5C 129.087,351.781 128.42,348.781 128.5,345.5 Z"/></g>
<g><path style="opacity:1" fill="#515151" d="M 262.5,347.5 C 264.379,347.393 264.712,347.893 263.5,349C 265.808,350.936 268.475,351.769 271.5,351.5C 270.048,352.302 268.382,352.802 266.5,353C 265.934,353.995 265.267,354.828 264.5,355.5C 262.217,356.076 261.883,355.076 263.5,352.5C 263.5,351.833 263.167,351.5 262.5,351.5C 261.209,351.263 260.209,351.596 259.5,352.5C 258.292,353.234 256.959,353.567 255.5,353.5C 256.599,350.068 258.932,348.068 262.5,347.5 Z"/></g>
<g><path style="opacity:0.949" fill="#a7daf1" d="M 224.5,342.5 C 226.469,350.937 227.802,359.604 228.5,368.5C 227.833,367.167 227.167,365.833 226.5,364.5C 225.615,357.188 224.948,349.855 224.5,342.5 Z"/></g>
<g><path style="opacity:0.005" fill="#e2e2e2" d="M 262.5,351.5 C 263.167,351.5 263.5,351.833 263.5,352.5C 261.883,355.076 262.217,356.076 264.5,355.5C 264.53,356.497 264.03,357.164 263,357.5C 261.256,355.845 260.09,354.178 259.5,352.5C 260.209,351.596 261.209,351.263 262.5,351.5 Z"/></g>
<g><path style="opacity:0.492" fill="#f7f3a5" d="M 294.5,340.5 C 294.5,348.833 294.5,357.167 294.5,365.5C 294.5,366.167 294.167,366.5 293.5,366.5C 293.5,365.833 293.5,365.167 293.5,364.5C 293.666,360.486 293.499,356.486 293,352.5C 292.302,351.309 291.469,350.309 290.5,349.5C 291.5,349.5 292.5,349.5 293.5,349.5C 293.5,347.5 293.5,345.5 293.5,343.5C 290.5,343.5 287.5,343.5 284.5,343.5C 287.963,342.989 291.296,341.989 294.5,340.5 Z"/></g>
<g><path style="opacity:0.839" fill="#9a9a9a" d="M 361.5,352.5 C 365.905,352.7 366.405,354.033 363,356.5C 362.235,356.43 361.735,356.097 361.5,355.5C 362.376,355.631 363.043,355.298 363.5,354.5C 362.757,353.818 362.091,353.151 361.5,352.5 Z"/></g>
<g><path style="opacity:0.039" fill="#e2e2d4" d="M 321.5,347.5 C 321.833,347.5 322.167,347.5 322.5,347.5C 324.735,347.205 326.735,347.539 328.5,348.5C 326.983,348.685 325.316,348.685 323.5,348.5C 322.833,352.982 322.166,357.316 321.5,361.5C 321.5,356.833 321.5,352.167 321.5,347.5 Z"/></g>
<g><path style="opacity:0.059" fill="#d7d7d7" d="M 352.5,354.5 C 354.179,354.285 355.179,354.952 355.5,356.5C 354.29,356.068 353.29,355.401 352.5,354.5 Z"/></g>
<g><path style="opacity:1" fill="#ed292a" d="M 226.5,364.5 C 227.167,365.833 227.833,367.167 228.5,368.5C 229.381,372.454 230.048,376.454 230.5,380.5C 227.316,382.414 223.649,383.08 219.5,382.5C 217.5,382.5 215.5,382.5 213.5,382.5C 212.167,381.167 210.833,381.167 209.5,382.5C 207.5,382.5 205.5,382.5 203.5,382.5C 200.833,382.5 198.167,382.5 195.5,382.5C 195.167,382.5 194.833,382.5 194.5,382.5C 193.566,381.432 193.232,380.099 193.5,378.5C 193.659,374.709 194.325,371.042 195.5,367.5C 196.404,366.791 196.737,365.791 196.5,364.5C 206.5,364.5 216.5,364.5 226.5,364.5 Z"/></g>
<g><path style="opacity:1" fill="#a42990" d="M 294.5,365.5 C 302.801,366.719 311.135,367.719 319.5,368.5C 319.5,369.167 319.833,369.5 320.5,369.5C 324.221,374.562 327.555,379.896 330.5,385.5C 330.414,386.496 330.748,387.329 331.5,388C 327.975,388.179 324.641,388.679 321.5,389.5C 319.167,389.5 316.833,389.5 314.5,389.5C 309.26,388.551 303.927,388.218 298.5,388.5C 295.5,388.5 292.5,388.5 289.5,388.5C 285.505,386.26 284.505,382.926 286.5,378.5C 287.079,375.669 288.412,373.336 290.5,371.5C 292.408,370.514 293.408,368.848 293.5,366.5C 294.167,366.5 294.5,366.167 294.5,365.5 Z"/></g>
<g><path style="opacity:0.09" fill="#fcfade" d="M 321.5,361.5 C 321.721,364.279 321.388,366.946 320.5,369.5C 319.833,369.5 319.5,369.167 319.5,368.5C 320.065,366.048 320.732,363.715 321.5,361.5 Z"/></g>
<g><path style="opacity:1" fill="#d8a5cc" d="M 293.5,364.5 C 293.5,365.167 293.5,365.833 293.5,366.5C 293.408,368.848 292.408,370.514 290.5,371.5C 291.264,368.982 292.264,366.649 293.5,364.5 Z"/></g>
<g><path style="opacity:0.741" fill="#f4aad3" d="M 135.5,377.5 C 136.768,379.905 137.435,382.572 137.5,385.5C 137.5,385.833 137.5,386.167 137.5,386.5C 136.087,383.781 135.42,380.781 135.5,377.5 Z"/></g>
<g><path style="opacity:1" fill="#151512" d="M 203.5,382.5 C 205.5,382.5 207.5,382.5 209.5,382.5C 208.949,385.807 208.616,389.14 208.5,392.5C 208.702,394.95 208.369,397.283 207.5,399.5C 206.677,402.977 206.177,406.644 206,410.5C 203.091,413.394 199.591,414.227 195.5,413C 193.67,408.273 195.337,406.107 200.5,406.5C 200.5,405.167 200.5,403.833 200.5,402.5C 200.325,400.379 200.659,398.379 201.5,396.5C 202.08,392.19 202.414,387.857 202.5,383.5C 203.167,383.5 203.5,383.167 203.5,382.5 Z"/></g>
<g><path style="opacity:1" fill="#bd69ac" d="M 286.5,378.5 C 284.505,382.926 285.505,386.26 289.5,388.5C 286.278,388.892 283.278,388.392 280.5,387C 281.945,383.73 283.945,380.897 286.5,378.5 Z"/></g>
<g><path style="opacity:0.337" fill="#eff2db" d="M 193.5,378.5 C 193.232,380.099 193.566,381.432 194.5,382.5C 194.833,383.833 195.167,383.833 195.5,382.5C 198.167,382.5 200.833,382.5 203.5,382.5C 203.5,383.167 203.167,383.5 202.5,383.5C 196.87,384.292 191.203,384.625 185.5,384.5C 187.607,383.532 189.941,383.198 192.5,383.5C 192.216,381.585 192.549,379.919 193.5,378.5 Z"/></g>
<g><path style="opacity:0.366" fill="#c8d18c" d="M 213.5,382.5 C 214.414,385.728 214.747,389.061 214.5,392.5C 212.612,391.725 210.612,391.725 208.5,392.5C 208.616,389.14 208.949,385.807 209.5,382.5C 210.833,381.167 212.167,381.167 213.5,382.5 Z"/></g>
<g><path style="opacity:1" fill="#121110" d="M 213.5,382.5 C 215.5,382.5 217.5,382.5 219.5,382.5C 219.325,384.621 219.659,386.621 220.5,388.5C 221.272,392.452 221.605,396.452 221.5,400.5C 220.309,405.118 221.975,407.618 226.5,408C 228.14,410.776 227.473,412.776 224.5,414C 221.653,414.944 219.153,414.444 217,412.5C 216.162,407.357 215.328,402.357 214.5,397.5C 214.5,395.833 214.5,394.167 214.5,392.5C 214.747,389.061 214.414,385.728 213.5,382.5 Z"/></g>
<g><path style="opacity:0.661" fill="#d8e29e" d="M 230.5,380.5 C 233.079,381.228 235.746,381.728 238.5,382C 232.639,384.468 226.639,386.635 220.5,388.5C 219.659,386.621 219.325,384.621 219.5,382.5C 223.649,383.08 227.316,382.414 230.5,380.5 Z"/></g>
<g><path style="opacity:0.985" fill="#d1e28c" d="M 202.5,383.5 C 202.414,387.857 202.08,392.19 201.5,396.5C 198.243,397.462 195.243,398.962 192.5,401C 194.937,402.375 197.603,402.875 200.5,402.5C 200.5,403.833 200.5,405.167 200.5,406.5C 195.337,406.107 193.67,408.273 195.5,413C 199.591,414.227 203.091,413.394 206,410.5C 206.177,406.644 206.677,402.977 207.5,399.5C 207.5,400.5 207.5,401.5 207.5,402.5C 209.527,402.662 211.527,402.495 213.5,402C 214.38,400.644 214.714,399.144 214.5,397.5C 215.328,402.357 216.162,407.357 217,412.5C 219.153,414.444 221.653,414.944 224.5,414C 227.473,412.776 228.14,410.776 226.5,408C 221.975,407.618 220.309,405.118 221.5,400.5C 222.117,400.611 222.617,400.944 223,401.5C 233.34,400.583 243.673,399.583 254,398.5C 254.671,399.252 255.504,399.586 256.5,399.5C 265.525,399.168 274.525,399.502 283.5,400.5C 282.807,401.518 282.141,402.518 281.5,403.5C 275.243,405.706 269.077,408.372 263,411.5C 257.757,407.773 251.924,406.607 245.5,408C 241.442,408.34 237.442,409.007 233.5,410C 231.395,411.193 229.728,412.86 228.5,415C 224.961,416.504 221.295,416.837 217.5,416C 215.615,413.778 213.449,411.944 211,410.5C 208.462,412.67 205.628,414.504 202.5,416C 194.357,414.483 190.024,417.816 189.5,426C 189.439,428.261 190.106,430.261 191.5,432C 195.222,432.238 198.889,432.738 202.5,433.5C 210.497,429.663 218.997,427.997 228,428.5C 231.5,428.667 235,428.833 238.5,429C 240.619,429.098 242.286,429.931 243.5,431.5C 228.156,432.858 212.823,434.358 197.5,436C 178.536,439.383 159.536,442.55 140.5,445.5C 136.292,445.731 133.625,443.898 132.5,440C 132.833,439.5 133.167,439 133.5,438.5C 147.548,433.762 161.548,428.928 175.5,424C 174.552,423.517 173.552,423.351 172.5,423.5C 169.962,423.493 167.462,423.159 165,422.5C 161.999,424.058 158.166,425.224 153.5,426C 148.833,426.333 144.167,426.667 139.5,427C 140.167,427.333 140.833,427.667 141.5,428C 140.263,428.232 139.263,428.732 138.5,429.5C 124.023,432.949 109.356,435.283 94.5,436.5C 77.8245,437.739 61.1578,437.739 44.5,436.5C 38.1524,433.519 37.819,429.686 43.5,425C 58.7686,415.074 75.4353,408.574 93.5,405.5C 94.7079,404.766 96.0413,404.433 97.5,404.5C 96.9084,407.127 96.5751,409.794 96.5,412.5C 91.4592,412.353 89.7926,414.519 91.5,419C 95.8243,421.469 99.3243,420.636 102,416.5C 103.825,408.538 105.325,400.538 106.5,392.5C 110.997,392.221 115.33,392.221 119.5,392.5C 119.334,400.84 119.5,409.173 120,417.5C 122.896,419.745 126.063,420.078 129.5,418.5C 130.948,415.787 130.281,413.787 127.5,412.5C 126.503,405.532 126.17,398.532 126.5,391.5C 130.117,392.657 133.784,392.657 137.5,391.5C 137.5,390.167 137.5,388.833 137.5,387.5C 151.359,387.079 165.025,386.079 178.5,384.5C 180.833,384.5 183.167,384.5 185.5,384.5C 191.203,384.625 196.87,384.292 202.5,383.5 Z"/></g>
<g><path style="opacity:0.655" fill="#edf3d2" d="M 178.5,384.5 C 165.025,386.079 151.359,387.079 137.5,387.5C 137.5,387.167 137.5,386.833 137.5,386.5C 137.5,386.167 137.5,385.833 137.5,385.5C 139.076,386.075 140.742,386.408 142.5,386.5C 154.48,385.464 166.48,384.797 178.5,384.5 Z"/></g>
<g><path style="opacity:1" fill="#222222" d="M 289.5,388.5 C 292.5,388.5 295.5,388.5 298.5,388.5C 298.5,388.833 298.5,389.167 298.5,389.5C 295.118,396.639 292.118,403.972 289.5,411.5C 288.31,413.355 286.977,415.188 285.5,417C 283.167,417.667 280.833,417.667 278.5,417C 276.963,415.89 276.297,414.39 276.5,412.5C 278.036,409.908 280.369,408.908 283.5,409.5C 283.517,407.435 283.85,405.435 284.5,403.5C 285.167,403.5 285.5,403.167 285.5,402.5C 286.338,402.158 286.672,401.492 286.5,400.5C 287.5,396.5 288.5,392.5 289.5,388.5 Z"/></g>
<g><path style="opacity:0.569" fill="#d5a8cd" d="M 298.5,389.5 C 298.5,389.167 298.5,388.833 298.5,388.5C 303.927,388.218 309.26,388.551 314.5,389.5C 314.5,389.833 314.5,390.167 314.5,390.5C 309.213,389.658 303.88,389.324 298.5,389.5 Z"/></g>
<g><path style="opacity:0.588" fill="#d7a9ce" d="M 330.5,385.5 C 332.104,386.287 332.771,387.62 332.5,389.5C 328.973,390.431 325.64,390.764 322.5,390.5C 321.833,390.5 321.5,390.167 321.5,389.5C 324.641,388.679 327.975,388.179 331.5,388C 330.748,387.329 330.414,386.496 330.5,385.5 Z"/></g>
<g><path style="opacity:0.999" fill="#222221" d="M 314.5,389.5 C 316.833,389.5 319.167,389.5 321.5,389.5C 321.5,390.167 321.833,390.5 322.5,390.5C 325.095,396.285 327.095,402.285 328.5,408.5C 331.491,408.166 333.824,409.166 335.5,411.5C 335.5,411.833 335.5,412.167 335.5,412.5C 335.126,415.62 333.293,416.954 330,416.5C 326.102,416.652 323.602,414.985 322.5,411.5C 320.089,404.354 317.422,397.354 314.5,390.5C 314.5,390.167 314.5,389.833 314.5,389.5 Z"/></g>
<g><path style="opacity:0.999" fill="#d3e390" d="M 86.5,386.5 C 86.2865,388.144 86.6198,389.644 87.5,391C 91.4862,391.499 95.4862,391.666 99.5,391.5C 99.2182,395.574 98.5515,399.574 97.5,403.5C 79.5,403.5 61.5,403.5 43.5,403.5C 39.8183,403.665 36.1516,403.499 32.5,403C 30.4078,402.047 30.0745,400.714 31.5,399C 48.6293,394.911 65.9626,391.911 83.5,390C 84.8141,389.015 85.8141,387.848 86.5,386.5 Z"/></g>
<g><path style="opacity:1" fill="#2a2624" d="M 99.5,391.5 C 101.903,391.448 104.236,391.781 106.5,392.5C 105.325,400.538 103.825,408.538 102,416.5C 99.3243,420.636 95.8243,421.469 91.5,419C 89.7926,414.519 91.4592,412.353 96.5,412.5C 96.5751,409.794 96.9084,407.127 97.5,404.5C 97.5,404.167 97.5,403.833 97.5,403.5C 98.5515,399.574 99.2182,395.574 99.5,391.5 Z"/></g>
<g><path style="opacity:1" fill="#282423" d="M 126.5,391.5 C 126.17,398.532 126.503,405.532 127.5,412.5C 130.281,413.787 130.948,415.787 129.5,418.5C 126.063,420.078 122.896,419.745 120,417.5C 119.5,409.173 119.334,400.84 119.5,392.5C 121.95,392.702 124.283,392.369 126.5,391.5 Z"/></g>
<g><path style="opacity:0.007" fill="#f4f6e9" d="M 256.5,399.5 C 265.991,398.342 275.658,398.175 285.5,399C 284.288,400.107 284.621,400.607 286.5,400.5C 286.672,401.492 286.338,402.158 285.5,402.5C 284.794,401.443 284.461,401.776 284.5,403.5C 283.5,403.5 282.5,403.5 281.5,403.5C 282.141,402.518 282.807,401.518 283.5,400.5C 274.525,399.502 265.525,399.168 256.5,399.5 Z"/></g>
<g><path style="opacity:0.205" fill="#f7f9e8" d="M 43.5,403.5 C 61.5,403.5 79.5,403.5 97.5,403.5C 97.5,403.833 97.5,404.167 97.5,404.5C 96.0413,404.433 94.7079,404.766 93.5,405.5C 76.8333,404.833 60.1667,404.167 43.5,403.5 Z"/></g>
<g><path style="opacity:0.255" fill="#eef3d2" d="M 369.5,412.5 C 358.167,412.5 346.833,412.5 335.5,412.5C 335.5,412.167 335.5,411.833 335.5,411.5C 337.076,410.925 338.742,410.592 340.5,410.5C 350.328,411.062 359.995,411.729 369.5,412.5 Z"/></g>
<g><path style="opacity:0.94" fill="#d3e491" d="M 289.5,411.5 C 300.316,411.806 311.316,411.806 322.5,411.5C 323.602,414.985 326.102,416.652 330,416.5C 333.293,416.954 335.126,415.62 335.5,412.5C 346.833,412.5 358.167,412.5 369.5,412.5C 375.21,412.471 380.877,412.971 386.5,414C 388.974,414.113 390.974,415.113 392.5,417C 383.809,420.703 374.809,423.203 365.5,424.5C 361.952,424.095 358.619,424.595 355.5,426C 360.155,426.499 364.821,426.666 369.5,426.5C 378.943,426.823 388.11,428.49 397,431.5C 397.783,433.433 397.283,434.933 395.5,436C 388.637,438.033 381.637,439.199 374.5,439.5C 368.611,439.45 362.944,440.116 357.5,441.5C 330.261,445.033 302.928,447.867 275.5,450C 259.121,450.923 242.788,450.59 226.5,449C 225.269,447.817 225.269,446.651 226.5,445.5C 230.619,443.941 234.619,442.107 238.5,440C 245.388,438.858 252.055,437.025 258.5,434.5C 255.037,432.938 251.37,432.105 247.5,432C 254.896,428.834 262.229,429.167 269.5,433C 271.743,435.488 273.743,438.154 275.5,441C 277.275,442.439 279.275,443.439 281.5,444C 295.856,444.71 310.189,444.377 324.5,443C 331.823,440.702 335.656,435.869 336,428.5C 333.833,425.667 331.667,422.833 329.5,420C 325.835,418.503 322.502,416.503 319.5,414C 309.82,414.111 300.153,414.778 290.5,416C 285.673,419.871 280.339,420.538 274.5,418C 271.569,415.485 268.236,413.819 264.5,413C 268.486,412.501 272.486,412.334 276.5,412.5C 276.297,414.39 276.963,415.89 278.5,417C 280.833,417.667 283.167,417.667 285.5,417C 286.977,415.188 288.31,413.355 289.5,411.5 Z"/></g>
<g><path style="opacity:0.021" fill="#f6f9e5" d="M 365.5,424.5 C 366.833,425.167 368.167,425.833 369.5,426.5C 364.821,426.666 360.155,426.499 355.5,426C 358.619,424.595 361.952,424.095 365.5,424.5 Z"/></g>
<g><path style="opacity:0.994" fill="#e4edb9" d="M 172.5,423.5 C 161.358,425.859 150.024,427.859 138.5,429.5C 139.263,428.732 140.263,428.232 141.5,428C 140.833,427.667 140.167,427.333 139.5,427C 144.167,426.667 148.833,426.333 153.5,426C 158.166,425.224 161.999,424.058 165,422.5C 167.462,423.159 169.962,423.493 172.5,423.5 Z"/></g>
<g><path style="opacity:0.727" fill="#eff3d3" d="M 44.5,436.5 C 61.1578,437.739 77.8245,437.739 94.5,436.5C 79.031,439.192 63.3643,439.692 47.5,438C 46.2625,437.768 45.2625,437.268 44.5,436.5 Z"/></g>
<g><path style="opacity:0.055" fill="#f5f8e5" d="M 374.5,439.5 C 369.071,441.012 363.404,441.679 357.5,441.5C 362.944,440.116 368.611,439.45 374.5,439.5 Z"/></g>
<g><path style="opacity:0.208" fill="#d9d9e8" d="M 72.5,463.5 C 70.2188,463.077 68.5521,463.744 67.5,465.5C 66.596,464.791 66.2627,463.791 66.5,462.5C 68.7354,462.205 70.7354,462.539 72.5,463.5 Z"/></g>
<g><path style="opacity:0.998" fill="#413d94" d="M 214.5,464.5 C 214.5,465.5 214.5,466.5 214.5,467.5C 214.338,469.527 214.505,471.527 215,473.5C 215.717,472.956 216.217,472.289 216.5,471.5C 218.035,473.435 220.035,474.768 222.5,475.5C 222.649,476.552 222.483,477.552 222,478.5C 221.184,477.177 220.017,476.511 218.5,476.5C 217.432,475.566 216.099,475.232 214.5,475.5C 214.5,476.5 214.5,477.5 214.5,478.5C 214.675,480.621 214.341,482.621 213.5,484.5C 211.744,483.448 211.077,481.781 211.5,479.5C 211.5,478.833 211.5,478.167 211.5,477.5C 211.865,472.906 212.865,468.573 214.5,464.5 Z"/></g>
<g><path style="opacity:1" fill="#8d88ba" d="M 261.5,481.5 C 262.542,480.209 263.708,480.209 265,481.5C 265.667,476.5 265.667,471.5 265,466.5C 263.246,468.25 261.079,468.917 258.5,468.5C 259.919,467.549 261.585,467.216 263.5,467.5C 263.854,463.141 265.188,462.641 267.5,466C 266.57,471.45 266.237,476.95 266.5,482.5C 264.784,482.371 263.117,482.038 261.5,481.5 Z"/></g>
<g><path style="opacity:0.005" fill="#dcdbe8" d="M 56.5,463.5 C 58.1042,464.287 58.7709,465.62 58.5,467.5C 57.1667,467.5 55.8333,467.5 54.5,467.5C 55.1667,466.167 55.8333,464.833 56.5,463.5 Z"/></g>
<g><path style="opacity:0.604" fill="#b2b2d0" d="M 308.5,466.5 C 305.518,466.963 302.518,467.296 299.5,467.5C 302.409,465.713 305.409,465.379 308.5,466.5 Z"/></g>
<g><path style="opacity:0.991" fill="#5a53a0" d="M 64.5,473.5 C 64.7852,475.288 64.4519,476.955 63.5,478.5C 61.7197,475.078 60.7197,475.744 60.5,480.5C 60.6716,481.492 60.3382,482.158 59.5,482.5C 58.2921,483.234 56.9587,483.567 55.5,483.5C 57.7646,481.419 59.0979,478.752 59.5,475.5C 59.933,472.834 60.433,470.168 61,467.5C 61.7096,466.027 62.8762,465.36 64.5,465.5C 64.5,468.167 64.5,470.833 64.5,473.5 Z"/></g>
<g><path style="opacity:1" fill="#3d3b93" d="M 72.5,463.5 C 73.3382,463.842 73.6716,464.508 73.5,465.5C 72.5041,465.414 71.6708,465.748 71,466.5C 70.502,469.482 70.3354,472.482 70.5,475.5C 70.5,476.167 70.5,476.833 70.5,477.5C 69.3995,479.277 68.5662,481.277 68,483.5C 66.9887,484.337 65.8221,484.67 64.5,484.5C 64.3433,483.127 64.51,481.793 65,480.5C 65.6667,481.833 66.3333,481.833 67,480.5C 68.1564,476.582 68.6564,472.582 68.5,468.5C 68.4431,467.391 68.1098,466.391 67.5,465.5C 68.5521,463.744 70.2188,463.077 72.5,463.5 Z"/></g>
<g><path style="opacity:0.482" fill="#b7b8d2" d="M 197.5,464.5 C 197.5,465.833 197.5,467.167 197.5,468.5C 195.5,468.5 193.5,468.5 191.5,468.5C 192.919,467.549 194.585,467.216 196.5,467.5C 196.263,466.209 196.596,465.209 197.5,464.5 Z"/></g>
<g><path style="opacity:0.145" fill="#dddde9" d="M 369.5,468.5 C 370.097,467.861 370.93,467.528 372,467.5C 373.699,467.387 374.866,468.053 375.5,469.5C 373.565,468.85 371.565,468.517 369.5,468.5 Z"/></g>
<g><path style="opacity:0.01" fill="#eff0f4" d="M 308.5,466.5 C 309.097,466.735 309.43,467.235 309.5,468C 309.046,470.03 308.38,471.863 307.5,473.5C 307.448,471.097 307.781,468.764 308.5,466.5 Z"/></g>
<g><path style="opacity:0.173" fill="#d1d1e0" d="M 341.5,467.5 C 342.209,466.596 343.209,466.263 344.5,466.5C 344.5,467.5 344.5,468.5 344.5,469.5C 345.791,469.263 346.791,469.596 347.5,470.5C 346.167,470.5 344.833,470.5 343.5,470.5C 343.715,468.821 343.048,467.821 341.5,467.5 Z"/></g>
<g><path style="opacity:0.631" fill="#a5a1c8" d="M 73.5,465.5 C 74.4782,466.297 74.1449,466.964 72.5,467.5C 71.8324,470.306 71.1657,472.972 70.5,475.5C 70.3354,472.482 70.502,469.482 71,466.5C 71.6708,465.748 72.5041,465.414 73.5,465.5 Z"/></g>
<g><path style="opacity:0.996" fill="#8780b8" d="M 91.5,466.5 C 93.1238,466.36 94.2904,467.027 95,468.5C 100.69,467.014 103.19,469.348 102.5,475.5C 102.832,478.321 101.999,480.654 100,482.5C 99.1667,481.667 98.3333,480.833 97.5,480C 98.7111,478.887 98.7111,477.72 97.5,476.5C 99.967,474.714 99.8004,473.048 97,471.5C 96.5,471.667 96,471.833 95.5,472C 94.7781,475.102 94.6114,478.268 95,481.5C 93.9887,482.337 92.8221,482.67 91.5,482.5C 90.6486,477.094 90.6486,471.761 91.5,466.5 Z"/></g>
<g><path style="opacity:0.992" fill="#343390" d="M 118.5,464.5 C 119.506,464.938 119.506,465.604 118.5,466.5C 117.674,471.316 117.174,476.316 117,481.5C 116.5,480.333 115.667,479.5 114.5,479C 116.179,476.435 116.846,473.602 116.5,470.5C 107.365,470.297 107.365,469.63 116.5,468.5C 116.157,466.517 116.824,465.183 118.5,464.5 Z"/></g>
<g><path style="opacity:1" fill="#9189bd" d="M 132.5,468.5 C 131.127,468.343 129.793,468.51 128.5,469C 129.416,469.278 130.082,469.778 130.5,470.5C 131.404,471.209 131.737,472.209 131.5,473.5C 129.5,473.5 127.5,473.5 125.5,473.5C 125.649,472.448 125.483,471.448 125,470.5C 123.608,473.278 123.108,476.278 123.5,479.5C 120.456,474.668 121.456,470.501 126.5,467C 128.989,466.059 130.989,466.559 132.5,468.5 Z M 130.5,470.5 C 129.796,472.344 128.463,472.844 126.5,472C 127.563,470.812 128.897,470.312 130.5,470.5 Z"/></g>
<g><path style="opacity:1" fill="#7871af" d="M 137.5,467.5 C 139.017,467.511 140.184,468.177 141,469.5C 144.466,467.65 146.299,468.65 146.5,472.5C 144.856,472.286 143.356,472.62 142,473.5C 142.347,476.271 142.18,478.938 141.5,481.5C 140.5,481.5 139.5,481.5 138.5,481.5C 138.922,477.288 138.256,473.288 136.5,469.5C 136.863,468.817 137.196,468.15 137.5,467.5 Z"/></g>
<g><path style="opacity:1" fill="#9d98c3" d="M 274.5,467.5 C 275.448,468.978 276.781,469.978 278.5,470.5C 273.213,471.961 273.547,472.628 279.5,472.5C 277.735,473.461 275.735,473.795 273.5,473.5C 273.649,472.448 273.483,471.448 273,470.5C 271.608,473.278 271.108,476.278 271.5,479.5C 270.362,476.696 270.195,473.696 271,470.5C 271.759,468.937 272.926,467.937 274.5,467.5 Z"/></g>
<g><path style="opacity:0.963" fill="#32318d" d="M 369.5,468.5 C 371.565,468.517 373.565,468.85 375.5,469.5C 375.5,469.833 375.5,470.167 375.5,470.5C 375.663,472.857 375.497,475.19 375,477.5C 374.802,475.618 374.302,473.952 373.5,472.5C 371.962,469.952 370.296,469.952 368.5,472.5C 367.691,474.292 367.191,476.292 367,478.5C 366.333,474.833 366.333,471.167 367,467.5C 367.299,470.798 368.133,471.132 369.5,468.5 Z"/></g>
<g><path style="opacity:1" fill="#625aa4" d="M 87.5,471.5 C 86.8826,471.389 86.3826,471.056 86,470.5C 85.8091,472.708 85.3091,474.708 84.5,476.5C 84.2627,477.791 84.596,478.791 85.5,479.5C 81.8021,482.438 78.4688,482.104 75.5,478.5C 74.8075,474.247 75.8075,470.581 78.5,467.5C 82.9327,465.417 85.9327,466.751 87.5,471.5 Z M 84.5,476.5 C 79.0863,479.427 77.0863,477.76 78.5,471.5C 83.4452,469.439 85.4452,471.105 84.5,476.5 Z"/></g>
<g><path style="opacity:1" fill="#5e55a2" d="M 152.5,465.5 C 153.117,471.598 152.45,477.265 150.5,482.5C 149.578,477.528 149.412,472.528 150,467.5C 150.417,466.244 151.25,465.577 152.5,465.5 Z"/></g>
<g><path style="opacity:0.004" fill="#d7d9e5" d="M 159.5,468.5 C 160.802,470.028 162.469,471.028 164.5,471.5C 161.927,471.852 159.594,471.352 157.5,470C 158.044,469.283 158.711,468.783 159.5,468.5 Z"/></g>
<g><path style="opacity:0.949" fill="#7770ae" d="M 167.5,471.5 C 166.883,471.389 166.383,471.056 166,470.5C 165.648,472.247 165.148,473.914 164.5,475.5C 162.901,475.232 161.568,475.566 160.5,476.5C 160.5,477.5 160.5,478.5 160.5,479.5C 159.732,478.737 159.232,477.737 159,476.5C 158.322,478.598 158.489,480.598 159.5,482.5C 155.504,479.558 155.504,476.392 159.5,473C 161.382,472.802 163.048,472.302 164.5,471.5C 162.469,471.028 160.802,470.028 159.5,468.5C 161.288,467.378 163.288,467.211 165.5,468C 166.823,468.816 167.489,469.983 167.5,471.5 Z"/></g>
<g><path style="opacity:1" fill="#7e76b3" d="M 222.5,475.5 C 220.035,474.768 218.035,473.435 216.5,471.5C 219.306,469.525 221.639,467.025 223.5,464C 224.448,463.517 225.448,463.351 226.5,463.5C 226.029,467.503 224.029,470.669 220.5,473C 221.381,473.708 222.047,474.542 222.5,475.5 Z"/></g>
<g><path style="opacity:1" fill="#a8a4c9" d="M 258.5,468.5 C 258.389,469.117 258.056,469.617 257.5,470C 259.81,470.497 262.143,470.663 264.5,470.5C 264.896,473.482 264.229,476.149 262.5,478.5C 260.701,479.788 259.035,479.788 257.5,478.5C 256.686,476.369 256.186,474.036 256,471.5C 255.617,472.056 255.117,472.389 254.5,472.5C 254.833,470.167 256.167,468.833 258.5,468.5 Z M 257.5,478.5 C 256.094,473.069 258.094,470.735 263.5,471.5C 263.554,475.78 261.554,478.114 257.5,478.5 Z"/></g>
<g><path style="opacity:0.988" fill="#7a71b1" d="M 285.5,467.5 C 287.044,467.703 288.378,468.37 289.5,469.5C 292.85,467.726 294.516,468.726 294.5,472.5C 293.127,472.343 291.793,472.51 290.5,473C 290.833,473.333 291.167,473.667 291.5,474C 290.446,476.382 289.779,478.882 289.5,481.5C 287.897,481.688 286.563,481.188 285.5,480C 286.491,475.624 286.491,471.458 285.5,467.5 Z"/></g>
<g><path style="opacity:0.004" fill="#d1d1e0" d="M 313.5,468.5 C 314.802,470.028 316.469,471.028 318.5,471.5C 316.5,471.5 314.5,471.5 312.5,471.5C 312.263,470.209 312.596,469.209 313.5,468.5 Z"/></g>
<g><path style="opacity:0.996" fill="#5e57a1" d="M 341.5,467.5 C 343.048,467.821 343.715,468.821 343.5,470.5C 344.833,470.5 346.167,470.5 347.5,470.5C 347.179,472.048 346.179,472.715 344.5,472.5C 342.824,473.183 342.157,474.517 342.5,476.5C 343.335,477.943 344.668,478.943 346.5,479.5C 344.955,480.452 343.288,480.785 341.5,480.5C 339.2,478.925 338.367,476.925 339,474.5C 338.005,473.934 337.172,473.267 336.5,472.5C 336.5,472.167 336.5,471.833 336.5,471.5C 338.138,470.168 339.804,468.834 341.5,467.5 Z"/></g>
<g><path style="opacity:0.043" fill="#dfdee8" d="M 373.5,472.5 C 372.027,471.929 370.36,471.929 368.5,472.5C 370.296,469.952 371.962,469.952 373.5,472.5 Z"/></g>
<g><path style="opacity:0.992" fill="#4c4499" d="M 56.5,463.5 C 55.8333,464.833 55.1667,466.167 54.5,467.5C 54.5,468.5 54.5,469.5 54.5,470.5C 54.6641,473.187 54.4974,475.854 54,478.5C 53.2259,473.343 52.0592,468.343 50.5,463.5C 52.3888,462.258 54.3888,462.258 56.5,463.5 Z"/></g>
<g><path style="opacity:0.998" fill="#474297" d="M 132.5,468.5 C 133.167,468.5 133.5,468.833 133.5,469.5C 133.5,471.167 133.5,472.833 133.5,474.5C 132.209,474.263 131.209,474.596 130.5,475.5C 128.585,475.216 126.919,475.549 125.5,476.5C 125.5,476.833 125.5,477.167 125.5,477.5C 126.952,479.852 128.952,480.185 131.5,478.5C 132.463,478.97 132.463,479.637 131.5,480.5C 128.549,483.195 125.882,482.862 123.5,479.5C 123.108,476.278 123.608,473.278 125,470.5C 125.483,471.448 125.649,472.448 125.5,473.5C 127.5,473.5 129.5,473.5 131.5,473.5C 131.737,472.209 131.404,471.209 130.5,470.5C 130.082,469.778 129.416,469.278 128.5,469C 129.793,468.51 131.127,468.343 132.5,468.5 Z M 130.5,470.5 C 128.897,470.312 127.563,470.812 126.5,472C 128.463,472.844 129.796,472.344 130.5,470.5 Z"/></g>
<g><path style="opacity:0.237" fill="#b5b4d0" d="M 214.5,464.5 C 212.865,468.573 211.865,472.906 211.5,477.5C 211.797,473.233 211.464,469.066 210.5,465C 211.818,463.37 213.151,463.203 214.5,464.5 Z"/></g>
<g><path style="opacity:0.059" fill="#e5e6ef" d="M 214.5,467.5 C 215.167,468.833 215.833,470.167 216.5,471.5C 216.217,472.289 215.717,472.956 215,473.5C 214.505,471.527 214.338,469.527 214.5,467.5 Z"/></g>
<g><path style="opacity:0.671" fill="#a29ec7" d="M 233.5,481.5 C 233.477,464.252 232.81,464.252 231.5,481.5C 230.781,476.272 230.448,470.938 230.5,465.5C 232.167,462.833 233.833,462.833 235.5,465.5C 234.876,470.965 234.21,476.298 233.5,481.5 Z"/></g>
<g><path style="opacity:0.992" fill="#837bb5" d="M 334.5,469.5 C 333.552,470.978 332.219,471.978 330.5,472.5C 330.802,475.059 330.468,477.393 329.5,479.5C 329.663,477.143 329.497,474.81 329,472.5C 327.954,473.772 327.454,475.272 327.5,477C 327.608,478.681 328.275,479.848 329.5,480.5C 328.992,482.233 328.159,482.566 327,481.5C 326.461,477.126 326.128,472.792 326,468.5C 326.333,468.167 326.667,467.833 327,467.5C 327.689,468.357 328.522,469.023 329.5,469.5C 331.316,468.265 332.983,468.265 334.5,469.5 Z"/></g>
<g><path style="opacity:0.007" fill="#fcfffc" d="M 56.5,472.5 C 57.5735,473.251 57.7401,474.251 57,475.5C 56.5172,474.552 56.3505,473.552 56.5,472.5 Z"/></g>
<g><path style="opacity:0.298" fill="#babad2" d="M 318.5,471.5 C 319.573,472.251 319.74,473.251 319,474.5C 317.301,473.594 315.467,473.261 313.5,473.5C 315.167,472.833 316.833,472.167 318.5,471.5 Z"/></g>
<g><path style="opacity:0.99" fill="#34328e" d="M 329.5,479.5 C 329.5,479.833 329.5,480.167 329.5,480.5C 328.275,479.848 327.608,478.681 327.5,477C 327.454,475.272 327.954,473.772 329,472.5C 329.497,474.81 329.663,477.143 329.5,479.5 Z"/></g>
<g><path style="opacity:0.005" fill="#ecedf2" d="M 334.5,469.5 C 335.167,470.167 335.833,470.833 336.5,471.5C 336.5,471.833 336.5,472.167 336.5,472.5C 334.549,473.641 332.549,473.641 330.5,472.5C 332.219,471.978 333.552,470.978 334.5,469.5 Z"/></g>
<g><path style="opacity:0.102" fill="#f1f0f6" d="M 347.5,470.5 C 348.404,471.209 348.737,472.209 348.5,473.5C 346.901,473.768 345.568,473.434 344.5,472.5C 346.179,472.715 347.179,472.048 347.5,470.5 Z"/></g>
<g><path style="opacity:0.027" fill="#dfdfe9" d="M 351.5,470.5 C 350.167,473.833 350.167,477.167 351.5,480.5C 350.883,480.389 350.383,480.056 350,479.5C 349.333,476.833 349.333,474.167 350,471.5C 350.383,470.944 350.883,470.611 351.5,470.5 Z"/></g>
<g><path style="opacity:0.987" fill="#9992c1" d="M 358.5,470.5 C 359.472,473.098 360.472,473.098 361.5,470.5C 362.833,471.833 362.833,473.167 361.5,474.5C 360.833,474.5 360.167,474.5 359.5,474.5C 357.369,473.686 355.036,473.186 352.5,473C 353.69,469.718 355.69,468.885 358.5,470.5 Z M 358.5,470.5 C 357.796,472.344 356.463,472.844 354.5,472C 355.563,470.812 356.897,470.312 358.5,470.5 Z"/></g>
<g><path style="opacity:0.678" fill="#8e8dbb" d="M 174.5,467.5 C 173.514,471.97 173.181,476.637 173.5,481.5C 172.186,476.652 172.186,471.652 173.5,466.5C 174.107,466.624 174.44,466.957 174.5,467.5 Z"/></g>
<g><path style="opacity:0.99" fill="#4b4598" d="M 282.5,473.5 C 279.368,474.36 276.368,475.36 273.5,476.5C 273.833,477.167 274.167,477.833 274.5,478.5C 275.609,479.29 276.942,479.79 278.5,480C 276.527,480.495 274.527,480.662 272.5,480.5C 271.833,480.5 271.5,480.167 271.5,479.5C 271.108,476.278 271.608,473.278 273,470.5C 273.483,471.448 273.649,472.448 273.5,473.5C 275.735,473.795 277.735,473.461 279.5,472.5C 279.167,471.833 278.833,471.167 278.5,470.5C 276.781,469.978 275.448,468.978 274.5,467.5C 279.636,465.952 282.303,467.952 282.5,473.5 Z M 278.5,470.5 C 278.833,471.167 279.167,471.833 279.5,472.5C 273.547,472.628 273.213,471.961 278.5,470.5 Z"/></g>
<g><path style="opacity:0.51" fill="#b7b6d3" d="M 78.5,467.5 C 75.8075,470.581 74.8075,474.247 75.5,478.5C 74.3622,475.696 74.1955,472.696 75,469.5C 75.8159,468.177 76.9826,467.511 78.5,467.5 Z"/></g>
<g><path style="opacity:0.008" fill="#d0d0e1" d="M 133.5,469.5 C 134.461,471.265 134.795,473.265 134.5,475.5C 133.167,475.5 131.833,475.5 130.5,475.5C 131.209,474.596 132.209,474.263 133.5,474.5C 133.5,472.833 133.5,471.167 133.5,469.5 Z"/></g>
<g><path style="opacity:0.992" fill="#574f9e" d="M 361.5,470.5 C 360.472,473.098 359.472,473.098 358.5,470.5C 355.69,468.885 353.69,469.718 352.5,473C 355.036,473.186 357.369,473.686 359.5,474.5C 357.177,475.058 354.843,475.725 352.5,476.5C 352.624,477.107 352.957,477.44 353.5,477.5C 353.62,478.586 354.287,479.253 355.5,479.5C 357.177,478.813 358.844,478.146 360.5,477.5C 360.5,478.167 360.5,478.833 360.5,479.5C 359.29,479.932 358.29,480.599 357.5,481.5C 355.32,482.794 353.32,482.461 351.5,480.5C 350.167,477.167 350.167,473.833 351.5,470.5C 352.957,466.951 355.623,465.784 359.5,467C 360.823,467.816 361.489,468.983 361.5,470.5 Z M 358.5,470.5 C 356.897,470.312 355.563,470.812 354.5,472C 356.463,472.844 357.796,472.344 358.5,470.5 Z"/></g>
<g><path style="opacity:1" fill="#373791" d="M 87.5,471.5 C 87.5,472.167 87.5,472.833 87.5,473.5C 87.3964,475.703 86.7298,477.703 85.5,479.5C 84.596,478.791 84.2627,477.791 84.5,476.5C 85.3091,474.708 85.8091,472.708 86,470.5C 86.3826,471.056 86.8826,471.389 87.5,471.5 Z"/></g>
<g><path style="opacity:0.039" fill="#f9faf8" d="M 125.5,476.5 C 126.919,475.549 128.585,475.216 130.5,475.5C 130.5,475.833 130.5,476.167 130.5,476.5C 128.833,477.833 127.167,477.833 125.5,476.5 Z"/></g>
<g><path style="opacity:0.004" fill="#f3f5f6" d="M 160.5,476.5 C 161.568,475.566 162.901,475.232 164.5,475.5C 164.5,475.833 164.5,476.167 164.5,476.5C 163.036,477.405 161.702,477.405 160.5,476.5 Z"/></g>
<g><path style="opacity:0.461" fill="#9190bc" d="M 197.5,464.5 C 197.56,463.957 197.893,463.624 198.5,463.5C 199.496,469.798 199.83,476.132 199.5,482.5C 198.209,482.737 197.209,482.404 196.5,481.5C 197.814,479.085 198.481,476.252 198.5,473C 198.498,469.979 198.164,467.146 197.5,464.5 Z"/></g>
<g><path style="opacity:0.035" fill="#e4e5ec" d="M 218.5,476.5 C 216.801,476.527 215.467,477.194 214.5,478.5C 214.5,477.5 214.5,476.5 214.5,475.5C 216.099,475.232 217.432,475.566 218.5,476.5 Z"/></g>
<g><path style="opacity:0.02" fill="#eaebef" d="M 282.5,473.5 C 281.552,474.978 280.219,475.978 278.5,476.5C 276.833,476.5 275.167,476.5 273.5,476.5C 276.368,475.36 279.368,474.36 282.5,473.5 Z"/></g>
<g><path style="opacity:0.998" fill="#5b539f" d="M 106.5,472.5 C 108.06,474.156 109.06,476.156 109.5,478.5C 110.463,479.363 110.463,480.03 109.5,480.5C 108.583,479.873 107.583,479.539 106.5,479.5C 105.167,477.167 105.167,474.833 106.5,472.5 Z"/></g>
<g><path style="opacity:0.318" fill="#bebed6" d="M 307.5,473.5 C 307.611,474.117 307.944,474.617 308.5,475C 307.058,475.377 306.058,476.21 305.5,477.5C 303.712,477.785 302.045,477.452 300.5,476.5C 303.061,475.868 305.395,474.868 307.5,473.5 Z"/></g>
<g><path style="opacity:0.008" fill="#e5e6ed" d="M 359.5,474.5 C 360.167,474.5 360.833,474.5 361.5,474.5C 361.082,475.222 360.416,475.722 359.5,476C 360.056,476.383 360.389,476.883 360.5,477.5C 358.844,478.146 357.177,478.813 355.5,479.5C 354.287,479.253 353.62,478.586 353.5,477.5C 352.957,477.44 352.624,477.107 352.5,476.5C 354.843,475.725 357.177,475.058 359.5,474.5 Z"/></g>
<g><path style="opacity:1" fill="#a09bc5" d="M 50.5,463.5 C 52.0592,468.343 53.2259,473.343 54,478.5C 54.4974,475.854 54.6641,473.187 54.5,470.5C 55.1939,473.421 56.0272,476.421 57,479.5C 57.2004,477.68 58.0337,476.347 59.5,475.5C 59.0979,478.752 57.7646,481.419 55.5,483.5C 53.6885,481.615 52.5218,479.281 52,476.5C 51.9278,472.469 51.0944,468.636 49.5,465C 49.5699,464.235 49.9033,463.735 50.5,463.5 Z"/></g>
<g><path style="opacity:0.988" fill="#8178b4" d="M 191.5,468.5 C 193.167,469.833 194.833,471.167 196.5,472.5C 191.074,470.591 189.074,472.591 190.5,478.5C 191.833,478.5 193.167,478.5 194.5,478.5C 193.048,479.302 191.382,479.802 189.5,480C 190.056,480.383 190.389,480.883 190.5,481.5C 187.475,480.967 186.142,479.133 186.5,476C 186.331,472.149 187.997,469.649 191.5,468.5 Z"/></g>
<g><path style="opacity:0.039" fill="#f0f1f1" d="M 196.5,475.5 C 196.573,477.027 195.906,478.027 194.5,478.5C 194.427,476.973 195.094,475.973 196.5,475.5 Z"/></g>
<g><path style="opacity:0.995" fill="#524b9c" d="M 197.5,464.5 C 198.164,467.146 198.498,469.979 198.5,473C 198.481,476.252 197.814,479.085 196.5,481.5C 194.347,482.573 192.347,482.573 190.5,481.5C 190.389,480.883 190.056,480.383 189.5,480C 191.382,479.802 193.048,479.302 194.5,478.5C 195.906,478.027 196.573,477.027 196.5,475.5C 196.5,474.5 196.5,473.5 196.5,472.5C 194.833,471.167 193.167,469.833 191.5,468.5C 193.5,468.5 195.5,468.5 197.5,468.5C 197.5,467.167 197.5,465.833 197.5,464.5 Z"/></g>
<g><path style="opacity:0.994" fill="#554d9d" d="M 261.5,481.5 C 254.443,482.429 252.11,479.429 254.5,472.5C 255.117,472.389 255.617,472.056 256,471.5C 256.186,474.036 256.686,476.369 257.5,478.5C 259.035,479.788 260.701,479.788 262.5,478.5C 264.229,476.149 264.896,473.482 264.5,470.5C 262.143,470.663 259.81,470.497 257.5,470C 258.056,469.617 258.389,469.117 258.5,468.5C 261.079,468.917 263.246,468.25 265,466.5C 265.667,471.5 265.667,476.5 265,481.5C 263.708,480.209 262.542,480.209 261.5,481.5 Z M 257.5,478.5 C 261.554,478.114 263.554,475.78 263.5,471.5C 258.094,470.735 256.094,473.069 257.5,478.5 Z"/></g>
<g><path style="opacity:1" fill="#8a83b8" d="M 278.5,476.5 C 279.5,476.5 280.5,476.5 281.5,476.5C 281.548,479.292 280.215,481.125 277.5,482C 275.465,482.599 273.799,482.099 272.5,480.5C 274.527,480.662 276.527,480.495 278.5,480C 276.942,479.79 275.609,479.29 274.5,478.5C 276.38,478.771 277.713,478.104 278.5,476.5 Z"/></g>
<g><path style="opacity:0.998" fill="#4d4799" d="M 308.5,466.5 C 307.781,468.764 307.448,471.097 307.5,473.5C 305.395,474.868 303.061,475.868 300.5,476.5C 302.045,477.452 303.712,477.785 305.5,477.5C 308.041,479.44 308.041,481.607 305.5,484C 302.45,485.714 299.45,485.714 296.5,484C 295.226,483.023 295.226,482.189 296.5,481.5C 298.979,482.623 301.312,482.623 303.5,481.5C 304.043,481.44 304.376,481.107 304.5,480.5C 302.167,479.833 299.833,479.167 297.5,478.5C 298.167,477.5 298.833,476.5 299.5,475.5C 299.376,474.893 299.043,474.56 298.5,474.5C 297.522,474.189 296.855,473.522 296.5,472.5C 296.957,470.402 297.957,468.736 299.5,467.5C 302.518,467.296 305.518,466.963 308.5,466.5 Z M 301.5,469.5 C 305.439,470.731 305.439,472.064 301.5,473.5C 300.167,472.167 300.167,470.833 301.5,469.5 Z"/></g>
<g><path style="opacity:0.325" fill="#bdbdd5" d="M 301.5,469.5 C 303.684,468.017 305.017,468.684 305.5,471.5C 305.017,474.316 303.684,474.983 301.5,473.5C 305.439,472.064 305.439,470.731 301.5,469.5 Z"/></g>
<g><path style="opacity:1" fill="#4c4699" d="M 320.5,470.5 C 320.5,474.5 320.5,478.5 320.5,482.5C 318.5,482.5 316.5,482.5 314.5,482.5C 309.5,480.115 309.166,477.115 313.5,473.5C 315.467,473.261 317.301,473.594 319,474.5C 319.74,473.251 319.573,472.251 318.5,471.5C 316.469,471.028 314.802,470.028 313.5,468.5C 315.288,467.378 317.288,467.211 319.5,468C 320.252,468.671 320.586,469.504 320.5,470.5 Z M 318.5,476.5 C 318.306,478.912 316.973,479.912 314.5,479.5C 314.918,478.778 315.584,478.278 316.5,478C 316.167,477.667 315.833,477.333 315.5,477C 316.448,476.517 317.448,476.351 318.5,476.5 Z"/></g>
<g><path style="opacity:0.004" fill="#e5e5eb" d="M 318.5,476.5 C 317.448,476.351 316.448,476.517 315.5,477C 315.833,477.333 316.167,477.667 316.5,478C 315.584,478.278 314.918,478.778 314.5,479.5C 313.209,478.458 313.209,477.292 314.5,476C 316.066,475.235 317.399,475.402 318.5,476.5 Z"/></g>
<g><path style="opacity:0.004" fill="#fefffa" d="M 322.5,477.5 C 323.525,477.897 323.692,478.563 323,479.5C 322.536,478.906 322.369,478.239 322.5,477.5 Z"/></g>
<g><path style="opacity:0.971" fill="#8079b4" d="M 375.5,470.5 C 377.975,474.659 377.475,478.659 374,482.5C 372.916,481.335 372.083,480.002 371.5,478.5C 373.104,476.821 373.771,474.821 373.5,472.5C 374.302,473.952 374.802,475.618 375,477.5C 375.497,475.19 375.663,472.857 375.5,470.5 Z"/></g>
<g><path style="opacity:0.008" fill="#edeff1" d="M 87.5,473.5 C 88.5983,474.601 88.765,475.934 88,477.5C 87.5831,478.756 86.7498,479.423 85.5,479.5C 86.7298,477.703 87.3964,475.703 87.5,473.5 Z"/></g>
<g><path style="opacity:0.196" fill="#aaa6c9" d="M 130.5,476.5 C 132.252,476.418 133.252,477.251 133.5,479C 133.164,480.03 132.497,480.53 131.5,480.5C 132.463,479.637 132.463,478.97 131.5,478.5C 128.952,480.185 126.952,479.852 125.5,477.5C 127.586,479.023 129.252,478.69 130.5,476.5 Z"/></g>
<g><path style="opacity:1" fill="#665da6" d="M 174.5,467.5 C 176.314,467.772 178.314,467.939 180.5,468C 181.756,468.417 182.423,469.25 182.5,470.5C 182.665,473.85 182.498,477.183 182,480.5C 181.617,481.056 181.117,481.389 180.5,481.5C 180.053,478.686 179.886,475.686 180,472.5C 178.708,471.209 177.542,471.209 176.5,472.5C 176.167,472.5 175.833,472.5 175.5,472.5C 174.167,473.833 174.167,475.167 175.5,476.5C 175.5,477.167 175.833,477.5 176.5,477.5C 176.657,478.873 176.49,480.207 176,481.5C 175.023,482.774 174.189,482.774 173.5,481.5C 173.181,476.637 173.514,471.97 174.5,467.5 Z"/></g>
<g><path style="opacity:0.533" fill="#b0aed0" d="M 175.5,472.5 C 175.833,475.167 176.167,475.167 176.5,472.5C 177.833,474.167 177.833,475.833 176.5,477.5C 176.539,475.776 176.206,475.443 175.5,476.5C 174.167,475.167 174.167,473.833 175.5,472.5 Z"/></g>
<g><path style="opacity:1" fill="#776faf" d="M 240.5,466.5 C 241.75,466.577 242.583,467.244 243,468.5C 245.925,466.982 248.258,467.649 250,470.5C 250.667,473.833 250.667,477.167 250,480.5C 248.989,481.337 247.822,481.67 246.5,481.5C 247.135,478.507 247.301,475.507 247,472.5C 245.667,471.167 244.333,471.167 243,472.5C 242.872,475.514 242.872,478.514 243,481.5C 242,482.833 241,482.833 240,481.5C 239.222,476.416 239.389,471.416 240.5,466.5 Z"/></g>
<g><path style="opacity:0.98" fill="#867fb7" d="M 369.5,468.5 C 368.133,471.132 367.299,470.798 367,467.5C 366.333,471.167 366.333,474.833 367,478.5C 367.191,476.292 367.691,474.292 368.5,472.5C 368.702,475.607 369.036,478.94 369.5,482.5C 368.178,482.67 367.011,482.337 366,481.5C 365.589,476.481 365.089,471.481 364.5,466.5C 366.554,466.365 368.221,467.032 369.5,468.5 Z"/></g>
<g><path style="opacity:1" fill="#b1acce" d="M 68.5,468.5 C 68.6564,472.582 68.1564,476.582 67,480.5C 66.3333,481.833 65.6667,481.833 65,480.5C 64.51,481.793 64.3433,483.127 64.5,484.5C 63.607,482.703 62.2737,481.37 60.5,480.5C 60.7197,475.744 61.7197,475.078 63.5,478.5C 64.4519,476.955 64.7852,475.288 64.5,473.5C 65.3091,475.292 65.8091,477.292 66,479.5C 66.3333,476.167 66.6667,472.833 67,469.5C 67.3826,468.944 67.8826,468.611 68.5,468.5 Z"/></g>
<g><path style="opacity:0.004" fill="#cfcee0" d="M 182.5,470.5 C 184.218,474.122 184.384,477.789 183,481.5C 182.023,482.774 181.189,482.774 180.5,481.5C 181.117,481.389 181.617,481.056 182,480.5C 182.498,477.183 182.665,473.85 182.5,470.5 Z"/></g>
<g><path style="opacity:0.999" fill="#7a72b1" d="M 222.5,475.5 C 225.728,478.069 227.728,481.402 228.5,485.5C 224.648,483.328 221.315,480.328 218.5,476.5C 220.017,476.511 221.184,477.177 222,478.5C 222.483,477.552 222.649,476.552 222.5,475.5 Z"/></g>
<g><path style="opacity:1" fill="#5951a0" d="M 233.5,481.5 C 232.833,482.833 232.167,482.833 231.5,481.5C 232.81,464.252 233.477,464.252 233.5,481.5 Z"/></g>
<g><path style="opacity:0.094" fill="#dddde8" d="M 298.5,474.5 C 299.043,474.56 299.376,474.893 299.5,475.5C 298.833,476.5 298.167,477.5 297.5,478.5C 299.833,479.167 302.167,479.833 304.5,480.5C 304.376,481.107 304.043,481.44 303.5,481.5C 301.312,482.623 298.979,482.623 296.5,481.5C 296.166,478.812 296.832,476.479 298.5,474.5 Z"/></g>
<g><path style="opacity:0.424" fill="#bbbad5" d="M 318.5,476.5 C 319.791,477.542 319.791,478.708 318.5,480C 316.934,480.765 315.601,480.598 314.5,479.5C 316.973,479.912 318.306,478.912 318.5,476.5 Z"/></g>
<g><path style="opacity:0.663" fill="#b6b6d1" d="M 342.5,476.5 C 344.854,476.91 346.854,477.91 348.5,479.5C 347.652,480.991 346.319,481.658 344.5,481.5C 343.274,481.48 342.274,481.147 341.5,480.5C 343.288,480.785 344.955,480.452 346.5,479.5C 344.668,478.943 343.335,477.943 342.5,476.5 Z"/></g>
<g><path style="opacity:1" fill="#8983b8" d="M 118.5,464.5 C 116.824,465.183 116.157,466.517 116.5,468.5C 107.365,469.63 107.365,470.297 116.5,470.5C 116.846,473.602 116.179,476.435 114.5,479C 115.667,479.5 116.5,480.333 117,481.5C 117.174,476.316 117.674,471.316 118.5,466.5C 118.625,471.622 118.625,476.956 118.5,482.5C 116.136,481.471 113.803,481.471 111.5,482.5C 109.308,482.243 107.641,481.243 106.5,479.5C 107.583,479.539 108.583,479.873 109.5,480.5C 110.463,480.03 110.463,479.363 109.5,478.5C 109.06,476.156 108.06,474.156 106.5,472.5C 107.83,468.082 110.83,466.415 115.5,467.5C 115.5,466.167 115.5,464.833 115.5,463.5C 116.791,463.263 117.791,463.596 118.5,464.5 Z M 109.5,478.5 C 108.094,473.069 110.094,470.735 115.5,471.5C 116.016,476.186 114.016,478.519 109.5,478.5 Z"/></g>
<g><path style="opacity:0.518" fill="#acaccc" d="M 152.5,465.5 C 153.49,471.31 153.823,477.31 153.5,483.5C 152.209,483.737 151.209,483.404 150.5,482.5C 152.45,477.265 153.117,471.598 152.5,465.5 Z"/></g>
<g><path style="opacity:1" fill="#5a52a0" d="M 167.5,471.5 C 168.678,474.477 168.678,477.477 167.5,480.5C 165.544,482.148 163.211,482.815 160.5,482.5C 160.167,482.5 159.833,482.5 159.5,482.5C 158.489,480.598 158.322,478.598 159,476.5C 159.232,477.737 159.732,478.737 160.5,479.5C 161.833,479.5 163.167,479.5 164.5,479.5C 164.5,478.5 164.5,477.5 164.5,476.5C 164.5,476.167 164.5,475.833 164.5,475.5C 165.148,473.914 165.648,472.247 166,470.5C 166.383,471.056 166.883,471.389 167.5,471.5 Z M 160.5,476.5 C 161.702,477.405 163.036,477.405 164.5,476.5C 164.5,477.5 164.5,478.5 164.5,479.5C 163.167,479.5 161.833,479.5 160.5,479.5C 160.5,478.5 160.5,477.5 160.5,476.5 Z"/></g>
<g><path style="opacity:0.008" fill="#eff0f4" d="M 360.5,479.5 C 360.179,481.048 359.179,481.715 357.5,481.5C 358.29,480.599 359.29,479.932 360.5,479.5 Z"/></g>
<g><path style="opacity:0.373" fill="#cccbde" d="M 167.5,480.5 C 167.5,481.5 167.5,482.5 167.5,483.5C 164.941,483.802 162.607,483.468 160.5,482.5C 163.211,482.815 165.544,482.148 167.5,480.5 Z"/></g>
<g><path style="opacity:0.322" fill="#b4b1d2" d="M 320.5,470.5 C 321.68,472.914 322.347,475.247 322.5,477.5C 321.539,479.265 321.205,481.265 321.5,483.5C 318.941,483.802 316.607,483.468 314.5,482.5C 316.5,482.5 318.5,482.5 320.5,482.5C 320.5,478.5 320.5,474.5 320.5,470.5 Z"/></g>
<g><path style="opacity:0.008" fill="#d3d2e2" d="M 59.5,482.5 C 58.756,485.884 57.4226,486.218 55.5,483.5C 56.9587,483.567 58.2921,483.234 59.5,482.5 Z"/></g>
<g><path style="opacity:0.004" fill="#dcdce7" d="M 70.5,477.5 C 70.5948,481.058 69.4282,484.058 67,486.5C 65.699,486.361 64.8656,485.695 64.5,484.5C 65.8221,484.67 66.9887,484.337 68,483.5C 68.5662,481.277 69.3995,479.277 70.5,477.5 Z"/></g>
<g><path style="opacity:0.651" fill="#acabcb" d="M 211.5,479.5 C 211.077,481.781 211.744,483.448 213.5,484.5C 212.791,485.404 211.791,485.737 210.5,485.5C 210.205,483.265 210.539,481.265 211.5,479.5 Z"/></g>
<g><path style="opacity:0.341" fill="#b8b7d4" d="M 174.5,489.5 C 187.702,489.796 200.702,490.796 213.5,492.5C 200.291,492.295 187.291,491.295 174.5,489.5 Z"/></g>
<g><path style="opacity:0.976" fill="#625aa4" d="M 174.5,489.5 C 187.291,491.295 200.291,492.295 213.5,492.5C 240.797,494.432 268.131,495.432 295.5,495.5C 299.702,495.183 303.702,495.517 307.5,496.5C 289.361,498.388 271.028,498.888 252.5,498C 220.811,496.457 189.144,494.624 157.5,492.5C 148.5,491.167 139.5,491.167 130.5,492.5C 123.892,493.561 117.225,494.227 110.5,494.5C 108.833,494.5 107.167,494.5 105.5,494.5C 105.5,493.5 105.5,492.5 105.5,491.5C 106.791,491.737 107.791,491.404 108.5,490.5C 120.462,488.976 132.628,488.309 145,488.5C 154.858,488.553 164.692,488.886 174.5,489.5 Z"/></g>
<g><path style="opacity:0.592" fill="#7a7bb4" d="M 130.5,492.5 C 139.5,491.167 148.5,491.167 157.5,492.5C 148.71,492.57 139.71,492.57 130.5,492.5 Z"/></g>
<g><path style="opacity:0.997" fill="#7e76b3" d="M 108.5,490.5 C 107.791,491.404 106.791,491.737 105.5,491.5C 105.5,492.5 105.5,493.5 105.5,494.5C 107.167,494.5 108.833,494.5 110.5,494.5C 108.169,495.317 105.669,495.984 103,496.5C 100.843,495.615 100.01,493.948 100.5,491.5C 103.127,490.908 105.794,490.575 108.5,490.5 Z"/></g>
<g><path style="opacity:0.706" fill="#9f9cc6" d="M 307.5,496.5 C 303.702,495.517 299.702,495.183 295.5,495.5C 305.198,494.678 315.031,493.678 325,492.5C 326.5,492.667 328,492.833 329.5,493C 327.608,493.973 325.608,494.64 323.5,495C 318.548,495.388 313.715,496.221 309,497.5C 308.617,496.944 308.117,496.611 307.5,496.5 Z"/></g>
<g><path style="opacity:0.208" fill="#d5d5e2" d="M 104.5,509.5 C 103.698,508.048 103.198,506.382 103,504.5C 102.505,506.473 102.338,508.473 102.5,510.5C 101.091,507.822 101.257,505.156 103,502.5C 104.352,504.594 104.852,506.927 104.5,509.5 Z"/></g>
<g><path style="opacity:0.675" fill="#9f9dc4" d="M 141.5,505.5 C 140.134,507.351 138.467,507.684 136.5,506.5C 136.624,505.893 136.957,505.56 137.5,505.5C 137.5,504.833 137.167,504.5 136.5,504.5C 138.534,501.795 140.201,502.128 141.5,505.5 Z"/></g>
<g><path style="opacity:0.612" fill="#b2b0cf" d="M 206.5,504.5 C 205.508,504.328 204.842,504.662 204.5,505.5C 205.751,506.472 205.418,507.139 203.5,507.5C 202.416,507.315 201.416,506.982 200.5,506.5C 200.858,504.299 202.192,502.965 204.5,502.5C 205.522,502.855 206.189,503.522 206.5,504.5 Z"/></g>
<g><path style="opacity:0.647" fill="#aaa7ca" d="M 317.5,510.5 C 318.396,511.506 319.062,511.506 319.5,510.5C 322.167,510.167 322.167,509.833 319.5,509.5C 320.609,508.71 321.942,508.21 323.5,508C 321.598,507.801 320.098,506.967 319,505.5C 318.617,506.056 318.117,506.389 317.5,506.5C 320.382,501.166 323.049,501.333 325.5,507C 324.844,512.317 322.177,513.983 317.5,512C 316.262,511.31 316.262,510.81 317.5,510.5 Z"/></g>
<g><path style="opacity:0.867" fill="#9793c0" d="M 116.5,503.5 C 118.467,503.261 120.301,503.594 122,504.5C 122.175,507.157 122.008,509.824 121.5,512.5C 115.559,514.056 113.393,511.723 115,505.5C 115.717,504.956 116.217,504.289 116.5,503.5 Z"/></g>
<g><path style="opacity:0.761" fill="#a09bc5" d="M 154.5,503.5 C 156.854,503.91 158.854,504.91 160.5,506.5C 159.965,508.271 159.131,508.604 158,507.5C 157.902,509.619 157.069,511.286 155.5,512.5C 154.151,509.459 153.818,506.459 154.5,503.5 Z"/></g>
<g><path style="opacity:0.957" fill="#9995c3" d="M 162.5,502.5 C 163.458,502.953 164.292,503.619 165,504.5C 166.333,503.167 167.667,503.167 169,504.5C 169.497,507.146 169.664,509.813 169.5,512.5C 168.5,512.5 167.5,512.5 166.5,512.5C 166.421,511.07 166.754,509.736 167.5,508.5C 166.731,506.199 165.731,506.033 164.5,508C 165.406,509.699 165.739,511.533 165.5,513.5C 164.5,513.5 163.5,513.5 162.5,513.5C 162.5,509.833 162.5,506.167 162.5,502.5 Z"/></g>
<g><path style="opacity:0.153" fill="#bdb9d5" d="M 235.5,505.5 C 234.533,506.806 233.199,507.473 231.5,507.5C 229.986,505.194 230.652,503.861 233.5,503.5C 234.713,503.747 235.38,504.414 235.5,505.5 Z"/></g>
<g><path style="opacity:0.937" fill="#9894c1" d="M 278.5,502.5 C 280.75,502.951 282.084,504.285 282.5,506.5C 281.57,508.105 281.57,509.605 282.5,511C 278.263,514.555 275.597,513.555 274.5,508C 274.901,505.44 276.234,503.607 278.5,502.5 Z"/></g>
<g><path style="opacity:0.569" fill="#948ebe" d="M 291.5,502.5 C 294.278,502.022 296.278,503.022 297.5,505.5C 295.599,506.231 293.599,506.231 291.5,505.5C 291.5,507.167 291.5,508.833 291.5,510.5C 293.39,510.703 294.89,510.037 296,508.5C 297.836,511.4 296.836,513.067 293,513.5C 289.024,512.214 287.69,509.547 289,505.5C 289.698,504.309 290.531,503.309 291.5,502.5 Z"/></g>
<g><path style="opacity:0.78" fill="#6a64a8" d="M 310.5,504.5 C 312.246,505.001 313.246,505.668 313.5,506.5C 313.167,506.5 312.833,506.5 312.5,506.5C 311.698,507.952 311.198,509.618 311,511.5C 310.802,509.618 310.302,507.952 309.5,506.5C 308.287,505.503 308.454,504.503 310,503.5C 310.399,503.728 310.565,504.062 310.5,504.5 Z"/></g>
<g><path style="opacity:1" fill="#3c3a90" d="M 104.5,509.5 C 104.591,511.698 103.925,512.031 102.5,510.5C 102.338,508.473 102.505,506.473 103,504.5C 103.198,506.382 103.698,508.048 104.5,509.5 Z"/></g>
<g><path style="opacity:0.425" fill="#9c9bc5" d="M 128.5,502.5 C 129.5,502.5 130.5,502.5 131.5,502.5C 131.666,506.514 131.499,510.514 131,514.5C 129.842,514.002 129.009,513.169 128.5,512C 128.786,509 128.786,505.834 128.5,502.5 Z"/></g>
<g><path style="opacity:0.153" fill="#cbccdf" d="M 189.5,509.5 C 188.698,508.048 188.198,506.382 188,504.5C 187.505,506.473 187.338,508.473 187.5,510.5C 186.091,507.822 186.257,505.156 188,502.5C 189.352,504.594 189.852,506.927 189.5,509.5 Z"/></g>
<g><path style="opacity:0.027" fill="#dddce7" d="M 196.5,504.5 C 195.532,506.607 195.198,508.941 195.5,511.5C 194.508,511.672 193.842,511.338 193.5,510.5C 194.165,508.302 194.832,505.969 195.5,503.5C 196.107,503.624 196.44,503.957 196.5,504.5 Z"/></g>
<g><path style="opacity:0.373" fill="#bebcd6" d="M 264.5,509.5 C 263.698,508.048 263.198,506.382 263,504.5C 262.506,506.134 262.34,507.801 262.5,509.5C 261.539,507.735 261.205,505.735 261.5,503.5C 262.5,503.5 263.5,503.5 264.5,503.5C 264.5,505.5 264.5,507.5 264.5,509.5 Z"/></g>
<g><path style="opacity:0.008" fill="#dedeea" d="M 310.5,504.5 C 312.167,504.5 313.833,504.5 315.5,504.5C 315.719,505.675 315.386,506.675 314.5,507.5C 313.893,507.376 313.56,507.043 313.5,506.5C 313.246,505.668 312.246,505.001 310.5,504.5 Z"/></g>
<g><path style="opacity:1" fill="#928bbe" d="M 102.5,510.5 C 103.925,512.031 104.591,511.698 104.5,509.5C 106.635,502.737 108.135,503.07 109,510.5C 109.186,508.1 109.686,505.766 110.5,503.5C 110.833,503.667 111.167,503.833 111.5,504C 113.091,507.275 112.758,510.275 110.5,513C 108.674,513.292 106.841,513.125 105,512.5C 103.624,512.316 102.791,511.649 102.5,510.5 Z"/></g>
<g><path style="opacity:0.933" fill="#4c4a97" d="M 136.5,504.5 C 137.167,504.5 137.5,504.833 137.5,505.5C 136.957,505.56 136.624,505.893 136.5,506.5C 138.467,507.684 140.134,507.351 141.5,505.5C 141.5,506.5 141.5,507.5 141.5,508.5C 139.833,508.5 138.167,508.5 136.5,508.5C 135.075,510.031 134.409,509.698 134.5,507.5C 134.427,505.973 135.094,504.973 136.5,504.5 Z"/></g>
<g><path style="opacity:0.006" fill="#d9d8e8" d="M 193.5,510.5 C 192.71,509.391 192.21,508.058 192,506.5C 191.781,507.938 191.281,509.271 190.5,510.5C 189.893,510.376 189.56,510.043 189.5,509.5C 191.757,502.712 193.09,503.045 193.5,510.5 Z"/></g>
<g><path style="opacity:0.827" fill="#928dbe" d="M 239.5,502.5 C 240.79,503.058 241.623,504.058 242,505.5C 243.24,502.083 244.407,501.917 245.5,505C 245.241,508.972 243.574,512.138 240.5,514.5C 239.422,512.525 239.755,510.692 241.5,509C 239.124,507.145 238.457,504.978 239.5,502.5 Z"/></g>
<g><path style="opacity:0.004" fill="#f3f3f5" d="M 141.5,505.5 C 142.598,506.601 142.765,507.934 142,509.5C 141.764,511.119 140.931,512.119 139.5,512.5C 141.031,511.075 140.698,510.409 138.5,510.5C 138.167,509.167 137.833,509.167 137.5,510.5C 136.662,510.158 136.328,509.492 136.5,508.5C 138.167,508.5 139.833,508.5 141.5,508.5C 141.5,507.5 141.5,506.5 141.5,505.5 Z"/></g>
<g><path style="opacity:0.776" fill="#a09fc5" d="M 214.5,504.5 C 220.551,502.746 222.551,505.246 220.5,512C 218.132,512.856 215.798,513.69 213.5,514.5C 213.187,510.958 213.521,507.625 214.5,504.5 Z M 216.5,506.5 C 217.586,506.62 218.253,507.287 218.5,508.5C 218.253,509.713 217.586,510.38 216.5,510.5C 216.5,509.167 216.5,507.833 216.5,506.5 Z"/></g>
<g><path style="opacity:1" fill="#514a9a" d="M 214.5,504.5 C 215.5,504.833 216.167,505.5 216.5,506.5C 216.5,507.833 216.5,509.167 216.5,510.5C 216.013,511.473 215.513,512.473 215,513.5C 214.502,510.518 214.335,507.518 214.5,504.5 Z"/></g>
<g><path style="opacity:0.988" fill="#645da4" d="M 319.5,509.5 C 319.5,509.833 319.5,510.167 319.5,510.5C 319.062,511.506 318.396,511.506 317.5,510.5C 316.167,509.167 316.167,507.833 317.5,506.5C 318.117,506.389 318.617,506.056 319,505.5C 320.098,506.967 321.598,507.801 323.5,508C 321.942,508.21 320.609,508.71 319.5,509.5 Z"/></g>
<g><path style="opacity:0.753" fill="#9997c2" d="M 134.5,507.5 C 134.409,509.698 135.075,510.031 136.5,508.5C 136.328,509.492 136.662,510.158 137.5,510.5C 137.833,510.5 138.167,510.5 138.5,510.5C 140.698,510.409 141.031,511.075 139.5,512.5C 134.757,513.654 133.09,511.988 134.5,507.5 Z"/></g>
<g><path style="opacity:1" fill="#635ba3" d="M 204.5,505.5 C 204.842,504.662 205.508,504.328 206.5,504.5C 207.833,505.833 207.833,507.167 206.5,508.5C 204.712,508.215 203.045,508.548 201.5,509.5C 201.624,510.107 201.957,510.44 202.5,510.5C 202.158,511.338 201.492,511.672 200.5,511.5C 199.167,509.833 199.167,508.167 200.5,506.5C 201.416,506.982 202.416,507.315 203.5,507.5C 205.418,507.139 205.751,506.472 204.5,505.5 Z"/></g>
<g><path style="opacity:0.745" fill="#8985b9" d="M 235.5,505.5 C 236.921,508.508 236.754,511.508 235,514.5C 233.333,513.833 231.667,513.167 230,512.5C 229.123,510.326 229.623,508.659 231.5,507.5C 233.199,507.473 234.533,506.806 235.5,505.5 Z M 232.5,509.5 C 235.001,509.511 235.168,510.178 233,511.5C 232.536,510.906 232.369,510.239 232.5,509.5 Z"/></g>
<g><path style="opacity:0.62" fill="#a8a4ca" d="M 300.5,503.5 C 302.722,503.178 304.556,503.845 306,505.5C 308.011,513.17 305.678,515.17 299,511.5C 299.99,508.785 300.49,506.118 300.5,503.5 Z M 301.5,510.5 C 302.077,509.227 302.743,509.227 303.5,510.5C 303.03,511.463 302.363,511.463 301.5,510.5 Z"/></g>
<g><path style="opacity:0.055" fill="#dcdce5" d="M 309.5,506.5 C 310.302,507.952 310.802,509.618 311,511.5C 311.198,509.618 311.698,507.952 312.5,506.5C 312.5,508.5 312.5,510.5 312.5,512.5C 311.5,512.5 310.5,512.5 309.5,512.5C 309.5,510.5 309.5,508.5 309.5,506.5 Z"/></g>
<g><path style="opacity:0.867" fill="#9692c0" d="M 144.5,503.5 C 149.027,502.526 151.36,504.359 151.5,509C 150.289,515.405 147.623,515.905 143.5,510.5C 144.04,509.252 144.707,508.085 145.5,507C 144.663,505.989 144.33,504.822 144.5,503.5 Z M 146.5,510.5 C 147.077,509.227 147.743,509.227 148.5,510.5C 148.03,511.463 147.363,511.463 146.5,510.5 Z"/></g>
<g><path style="opacity:0.98" fill="#a099c5" d="M 173.5,508.5 C 176.873,509.932 177.207,511.932 174.5,514.5C 172.834,512.579 172.5,510.579 173.5,508.5 Z"/></g>
<g><path style="opacity:0.765" fill="#56519c" d="M 189.5,509.5 C 189.56,510.043 189.893,510.376 190.5,510.5C 191.281,509.271 191.781,507.938 192,506.5C 192.21,508.058 192.71,509.391 193.5,510.5C 193.842,511.338 194.508,511.672 195.5,511.5C 194.791,512.404 193.791,512.737 192.5,512.5C 190.302,512.88 188.635,512.213 187.5,510.5C 187.338,508.473 187.505,506.473 188,504.5C 188.198,506.382 188.698,508.048 189.5,509.5 Z"/></g>
<g><path style="opacity:0.937" fill="#9390c0" d="M 225.5,501.5 C 226.267,502.172 226.934,503.005 227.5,504C 227.727,507.577 227.227,511.077 226,514.5C 224.178,510.269 224.011,505.935 225.5,501.5 Z"/></g>
<g><path style="opacity:0.149" fill="#bdbad5" d="M 248.5,508.5 C 250.484,508.484 251.484,509.484 251.5,511.5C 251.547,513 250.881,514 249.5,514.5C 247.834,512.579 247.5,510.579 248.5,508.5 Z"/></g>
<g><path style="opacity:0.835" fill="#8884b9" d="M 262.5,509.5 C 262.34,507.801 262.506,506.134 263,504.5C 263.198,506.382 263.698,508.048 264.5,509.5C 266.765,509.559 267.098,508.726 265.5,507C 265.613,505.72 266.28,504.887 267.5,504.5C 268.167,506.5 268.833,508.5 269.5,510.5C 270.706,508.516 270.706,506.516 269.5,504.5C 269.808,503.692 270.308,503.025 271,502.5C 272.783,505.892 272.949,509.392 271.5,513C 268.793,513.328 266.126,512.995 263.5,512C 262.748,511.329 262.414,510.496 262.5,509.5 Z"/></g>
<g><path style="opacity:0.753" fill="#a5a2c7" d="M 206.5,508.5 C 206.098,513.37 204.098,514.37 200.5,511.5C 201.492,511.672 202.158,511.338 202.5,510.5C 201.957,510.44 201.624,510.107 201.5,509.5C 203.045,508.548 204.712,508.215 206.5,508.5 Z"/></g>
<g><path style="opacity:0.133" fill="#afabcd" d="M 196.5,504.5 C 197.634,506.966 197.801,509.633 197,512.5C 195.384,513.801 193.884,513.801 192.5,512.5C 193.791,512.737 194.791,512.404 195.5,511.5C 195.198,508.941 195.532,506.607 196.5,504.5 Z"/></g>
</svg>
